<svg xmlns="http://www.w3.org/2000/svg" xmlns:xlink="http://www.w3.org/1999/xlink" width="800" height="65.13"><rect width="800" height="65.13" rx="0" ry="0" class="a"></rect><svg height="65.13" viewBox="0 0 80 6.513" width="800" xmlns="http://www.w3.org/2000/svg" xmlns:xlink="http://www.w3.org/1999/xlink"><style>.a{fill:transparent}.b{font-family:"Source Code Pro", "Lucida Console", "Liberation Mono", Menlo, Courier, monospace}.c{white-space:pre}.d{font-weight:bold;white-space:pre}.e{fill:#f8f8f8}.f{fill:#31b09e}.h{animation-duration:37.4832501411438s;animation-iteration-count:infinite;animation-name:g;animation-timing-function:steps(1,end)}@keyframes g{0%{transform:translateX(-0px)}0%{transform:translateX(-80px)}2.7%{transform:translateX(-160px)}2.83%{transform:translateX(-240px)}2.93%{transform:translateX(-320px)}3.14%{transform:translateX(-400px)}3.31%{transform:translateX(-480px)}3.45%{transform:translateX(-560px)}3.63%{transform:translateX(-640px)}3.85%{transform:translateX(-720px)}3.99%{transform:translateX(-800px)}4.19%{transform:translateX(-880px)}4.27%{transform:translateX(-960px)}4.44%{transform:translateX(-1040px)}4.62%{transform:translateX(-1120px)}4.75%{transform:translateX(-1200px)}4.94%{transform:translateX(-1280px)}5.12%{transform:translateX(-1360px)}5.32%{transform:translateX(-1440px)}5.44%{transform:translateX(-1520px)}5.55%{transform:translateX(-1600px)}5.65%{transform:translateX(-1680px)}5.77%{transform:translateX(-1760px)}5.93%{transform:translateX(-1840px)}6.05%{transform:translateX(-1920px)}6.23%{transform:translateX(-2000px)}6.31%{transform:translateX(-2080px)}6.46%{transform:translateX(-2160px)}6.56%{transform:translateX(-2240px)}6.74%{transform:translateX(-2320px)}6.88%{transform:translateX(-2400px)}7.04%{transform:translateX(-2480px)}7.25%{transform:translateX(-2560px)}7.35%{transform:translateX(-2640px)}7.43%{transform:translateX(-2720px)}7.64%{transform:translateX(-2800px)}7.76%{transform:translateX(-2880px)}7.94%{transform:translateX(-2960px)}8.07%{transform:translateX(-3040px)}8.24%{transform:translateX(-3120px)}8.45%{transform:translateX(-3200px)}8.61%{transform:translateX(-3280px)}8.73%{transform:translateX(-3360px)}8.89%{transform:translateX(-3440px)}9.02%{transform:translateX(-3520px)}9.22%{transform:translateX(-3600px)}9.33%{transform:translateX(-3680px)}9.42%{transform:translateX(-3760px)}9.5%{transform:translateX(-3840px)}9.62%{transform:translateX(-3920px)}9.83%{transform:translateX(-4000px)}10.03%{transform:translateX(-4080px)}10.13%{transform:translateX(-4160px)}10.33%{transform:translateX(-4240px)}10.46%{transform:translateX(-4320px)}10.6%{transform:translateX(-4400px)}10.77%{transform:translateX(-4480px)}10.87%{transform:translateX(-4560px)}11.02%{transform:translateX(-4640px)}11.22%{transform:translateX(-4720px)}11.38%{transform:translateX(-4800px)}11.48%{transform:translateX(-4880px)}11.68%{transform:translateX(-4960px)}11.81%{transform:translateX(-5040px)}12.02%{transform:translateX(-5120px)}12.22%{transform:translateX(-5200px)}12.36%{transform:translateX(-5280px)}12.43%{transform:translateX(-5360px)}12.55%{transform:translateX(-5440px)}12.64%{transform:translateX(-5520px)}12.75%{transform:translateX(-5600px)}12.84%{transform:translateX(-5680px)}13.04%{transform:translateX(-5760px)}13.18%{transform:translateX(-5840px)}13.36%{transform:translateX(-5920px)}13.51%{transform:translateX(-6000px)}13.6%{transform:translateX(-6080px)}13.78%{transform:translateX(-6160px)}13.86%{transform:translateX(-6240px)}25.26%{transform:translateX(-6320px)}26.76%{transform:translateX(-6400px)}28.35%{transform:translateX(-6480px)}29.75%{transform:translateX(-6560px)}31.3%{transform:translateX(-6640px)}32.8%{transform:translateX(-6720px)}34.1%{transform:translateX(-6800px)}35.48%{transform:translateX(-6880px)}36.86%{transform:translateX(-6960px)}38.3%{transform:translateX(-7040px)}39.7%{transform:translateX(-7120px)}41.11%{transform:translateX(-7200px)}42.49%{transform:translateX(-7280px)}43.93%{transform:translateX(-7360px)}45.43%{transform:translateX(-7440px)}46.88%{transform:translateX(-7520px)}48.32%{transform:translateX(-7600px)}49.76%{transform:translateX(-7680px)}51.17%{transform:translateX(-7760px)}52.62%{transform:translateX(-7840px)}54.02%{transform:translateX(-7920px)}55.41%{transform:translateX(-8000px)}56.87%{transform:translateX(-8080px)}58.29%{transform:translateX(-8160px)}59.75%{transform:translateX(-8240px)}61.21%{transform:translateX(-8320px)}62.63%{transform:translateX(-8400px)}64.11%{transform:translateX(-8480px)}65.56%{transform:translateX(-8560px)}66.99%{transform:translateX(-8640px)}68.41%{transform:translateX(-8720px)}69.84%{transform:translateX(-8800px)}71.25%{transform:translateX(-8880px)}72.68%{transform:translateX(-8960px)}74.11%{transform:translateX(-9040px)}75.53%{transform:translateX(-9120px)}77%{transform:translateX(-9200px)}78.43%{transform:translateX(-9280px)}79.85%{transform:translateX(-9360px)}81.25%{transform:translateX(-9440px)}82.64%{transform:translateX(-9520px)}85.08%{transform:translateX(-9600px)}100%{transform:translateX(-9680px)}}</style><g font-family="&#x27;Fira Code&#x27;,Monaco,Consolas,Menlo,&#x27;Bitstream Vera Sans Mono&#x27;,&#x27;Powerline Symbols&#x27;,monospace" font-size="1.67" class="b"><defs><symbol id="1"><text x="0" y="1.67" class="c">&gt;</text><text x="2.004" y="1.67" class="c">xaringan_to_pdf(&quot;https://slides.garrickadenbuie.com/extra-special-xaringan&quot;)</text></symbol><symbol id="2"><text x="0" y="1.67" class="d">Slide</text><text x="6.012" y="1.67" class="d">40</text><text x="9.017999999999999" y="1.67" class="d">(2)</text><text x="13.026" y="1.67" class="d">[====================================================&gt;-]</text><text x="70.13999999999999" y="1.67" class="d">Eta:</text><text x="76.15199999999999" y="1.67" class="d">1s</text></symbol><symbol id="a"><rect height="4" width="80" x="0" y="0" class="e"></rect></symbol><symbol id="b"><rect height="2.171" width="1.1022" class="f"></rect></symbol></defs><rect height="6.513" width="80" class="a"></rect><g class="h"><svg x="0" y="0" width="9760"><svg x="0"><use xlink:href="#a"></use><use xlink:href="#b" x="-0.0040000000000000036" y="0"></use></svg><svg x="80"><use xlink:href="#a"></use><use xlink:href="#b" x="1.996" y="0"></use><text x="0" y="1.67" class="c">&gt;</text></svg><svg x="160"><use xlink:href="#a"></use><use xlink:href="#b" x="2.996" y="0"></use><text x="0" y="1.67" class="c">&gt;</text><text x="2.004" y="1.67" class="c">x</text></svg><svg x="240"><use xlink:href="#a"></use><use xlink:href="#b" x="3.996" y="0"></use><text x="0" y="1.67" class="c">&gt;</text><text x="2.004" y="1.67" class="c">xa</text></svg><svg x="320"><use xlink:href="#a"></use><use xlink:href="#b" x="4.996" y="0"></use><text x="0" y="1.67" class="c">&gt;</text><text x="2.004" y="1.67" class="c">xar</text></svg><svg x="400"><use xlink:href="#a"></use><use xlink:href="#b" x="5.996" y="0"></use><text x="0" y="1.67" class="c">&gt;</text><text x="2.004" y="1.67" class="c">xari</text></svg><svg x="480"><use xlink:href="#a"></use><use xlink:href="#b" x="6.996" y="0"></use><text x="0" y="1.67" class="c">&gt;</text><text x="2.004" y="1.67" class="c">xarin</text></svg><svg x="560"><use xlink:href="#a"></use><use xlink:href="#b" x="7.996" y="0"></use><text x="0" y="1.67" class="c">&gt;</text><text x="2.004" y="1.67" class="c">xaring</text></svg><svg x="640"><use xlink:href="#a"></use><use xlink:href="#b" x="8.996" y="0"></use><text x="0" y="1.67" class="c">&gt;</text><text x="2.004" y="1.67" class="c">xaringa</text></svg><svg x="720"><use xlink:href="#a"></use><use xlink:href="#b" x="9.996" y="0"></use><text x="0" y="1.67" class="c">&gt;</text><text x="2.004" y="1.67" class="c">xaringan</text></svg><svg x="800"><use xlink:href="#a"></use><use xlink:href="#b" x="10.996" y="0"></use><text x="0" y="1.67" class="c">&gt;</text><text x="2.004" y="1.67" class="c">xaringan_</text></svg><svg x="880"><use xlink:href="#a"></use><use xlink:href="#b" x="11.996" y="0"></use><text x="0" y="1.67" class="c">&gt;</text><text x="2.004" y="1.67" class="c">xaringan_t</text></svg><svg x="960"><use xlink:href="#a"></use><use xlink:href="#b" x="12.996" y="0"></use><text x="0" y="1.67" class="c">&gt;</text><text x="2.004" y="1.67" class="c">xaringan_to</text></svg><svg x="1040"><use xlink:href="#a"></use><use xlink:href="#b" x="13.996" y="0"></use><text x="0" y="1.67" class="c">&gt;</text><text x="2.004" y="1.67" class="c">xaringan_to_</text></svg><svg x="1120"><use xlink:href="#a"></use><use xlink:href="#b" x="14.996" y="0"></use><text x="0" y="1.67" class="c">&gt;</text><text x="2.004" y="1.67" class="c">xaringan_to_p</text></svg><svg x="1200"><use xlink:href="#a"></use><use xlink:href="#b" x="15.996" y="0"></use><text x="0" y="1.67" class="c">&gt;</text><text x="2.004" y="1.67" class="c">xaringan_to_pd</text></svg><svg x="1280"><use xlink:href="#a"></use><use xlink:href="#b" x="16.996" y="0"></use><text x="0" y="1.67" class="c">&gt;</text><text x="2.004" y="1.67" class="c">xaringan_to_pdf</text></svg><svg x="1360"><use xlink:href="#a"></use><use xlink:href="#b" x="17.996" y="0"></use><text x="0" y="1.67" class="c">&gt;</text><text x="2.004" y="1.67" class="c">xaringan_to_pdf(</text></svg><svg x="1440"><use xlink:href="#a"></use><use xlink:href="#b" x="18.996" y="0"></use><text x="0" y="1.67" class="c">&gt;</text><text x="2.004" y="1.67" class="c">xaringan_to_pdf(&quot;</text></svg><svg x="1520"><use xlink:href="#a"></use><use xlink:href="#b" x="19.996" y="0"></use><text x="0" y="1.67" class="c">&gt;</text><text x="2.004" y="1.67" class="c">xaringan_to_pdf(&quot;h</text></svg><svg x="1600"><use xlink:href="#a"></use><use xlink:href="#b" x="20.996" y="0"></use><text x="0" y="1.67" class="c">&gt;</text><text x="2.004" y="1.67" class="c">xaringan_to_pdf(&quot;ht</text></svg><svg x="1680"><use xlink:href="#a"></use><use xlink:href="#b" x="21.996" y="0"></use><text x="0" y="1.67" class="c">&gt;</text><text x="2.004" y="1.67" class="c">xaringan_to_pdf(&quot;htt</text></svg><svg x="1760"><use xlink:href="#a"></use><use xlink:href="#b" x="22.996" y="0"></use><text x="0" y="1.67" class="c">&gt;</text><text x="2.004" y="1.67" class="c">xaringan_to_pdf(&quot;http</text></svg><svg x="1840"><use xlink:href="#a"></use><use xlink:href="#b" x="23.996" y="0"></use><text x="0" y="1.67" class="c">&gt;</text><text x="2.004" y="1.67" class="c">xaringan_to_pdf(&quot;https</text></svg><svg x="1920"><use xlink:href="#a"></use><use xlink:href="#b" x="24.996" y="0"></use><text x="0" y="1.67" class="c">&gt;</text><text x="2.004" y="1.67" class="c">xaringan_to_pdf(&quot;https:</text></svg><svg x="2000"><use xlink:href="#a"></use><use xlink:href="#b" x="25.996" y="0"></use><text x="0" y="1.67" class="c">&gt;</text><text x="2.004" y="1.67" class="c">xaringan_to_pdf(&quot;https:/</text></svg><svg x="2080"><use xlink:href="#a"></use><use xlink:href="#b" x="26.996" y="0"></use><text x="0" y="1.67" class="c">&gt;</text><text x="2.004" y="1.67" class="c">xaringan_to_pdf(&quot;https://</text></svg><svg x="2160"><use xlink:href="#a"></use><use xlink:href="#b" x="27.996" y="0"></use><text x="0" y="1.67" class="c">&gt;</text><text x="2.004" y="1.67" class="c">xaringan_to_pdf(&quot;https://s</text></svg><svg x="2240"><use xlink:href="#a"></use><use xlink:href="#b" x="28.996" y="0"></use><text x="0" y="1.67" class="c">&gt;</text><text x="2.004" y="1.67" class="c">xaringan_to_pdf(&quot;https://sl</text></svg><svg x="2320"><use xlink:href="#a"></use><use xlink:href="#b" x="29.996" y="0"></use><text x="0" y="1.67" class="c">&gt;</text><text x="2.004" y="1.67" class="c">xaringan_to_pdf(&quot;https://sli</text></svg><svg x="2400"><use xlink:href="#a"></use><use xlink:href="#b" x="30.996" y="0"></use><text x="0" y="1.67" class="c">&gt;</text><text x="2.004" y="1.67" class="c">xaringan_to_pdf(&quot;https://slid</text></svg><svg x="2480"><use xlink:href="#a"></use><use xlink:href="#b" x="31.996" y="0"></use><text x="0" y="1.67" class="c">&gt;</text><text x="2.004" y="1.67" class="c">xaringan_to_pdf(&quot;https://slide</text></svg><svg x="2560"><use xlink:href="#a"></use><use xlink:href="#b" x="32.996" y="0"></use><text x="0" y="1.67" class="c">&gt;</text><text x="2.004" y="1.67" class="c">xaringan_to_pdf(&quot;https://slides</text></svg><svg x="2640"><use xlink:href="#a"></use><use xlink:href="#b" x="33.996" y="0"></use><text x="0" y="1.67" class="c">&gt;</text><text x="2.004" y="1.67" class="c">xaringan_to_pdf(&quot;https://slides.</text></svg><svg x="2720"><use xlink:href="#a"></use><use xlink:href="#b" x="34.996" y="0"></use><text x="0" y="1.67" class="c">&gt;</text><text x="2.004" y="1.67" class="c">xaringan_to_pdf(&quot;https://slides.g</text></svg><svg x="2800"><use xlink:href="#a"></use><use xlink:href="#b" x="35.996" y="0"></use><text x="0" y="1.67" class="c">&gt;</text><text x="2.004" y="1.67" class="c">xaringan_to_pdf(&quot;https://slides.ga</text></svg><svg x="2880"><use xlink:href="#a"></use><use xlink:href="#b" x="36.996" y="0"></use><text x="0" y="1.67" class="c">&gt;</text><text x="2.004" y="1.67" class="c">xaringan_to_pdf(&quot;https://slides.gar</text></svg><svg x="2960"><use xlink:href="#a"></use><use xlink:href="#b" x="37.996" y="0"></use><text x="0" y="1.67" class="c">&gt;</text><text x="2.004" y="1.67" class="c">xaringan_to_pdf(&quot;https://slides.garr</text></svg><svg x="3040"><use xlink:href="#a"></use><use xlink:href="#b" x="38.996" y="0"></use><text x="0" y="1.67" class="c">&gt;</text><text x="2.004" y="1.67" class="c">xaringan_to_pdf(&quot;https://slides.garri</text></svg><svg x="3120"><use xlink:href="#a"></use><use xlink:href="#b" x="39.996" y="0"></use><text x="0" y="1.67" class="c">&gt;</text><text x="2.004" y="1.67" class="c">xaringan_to_pdf(&quot;https://slides.garric</text></svg><svg x="3200"><use xlink:href="#a"></use><use xlink:href="#b" x="40.996" y="0"></use><text x="0" y="1.67" class="c">&gt;</text><text x="2.004" y="1.67" class="c">xaringan_to_pdf(&quot;https://slides.garrick</text></svg><svg x="3280"><use xlink:href="#a"></use><use xlink:href="#b" x="41.996" y="0"></use><text x="0" y="1.67" class="c">&gt;</text><text x="2.004" y="1.67" class="c">xaringan_to_pdf(&quot;https://slides.garricka</text></svg><svg x="3360"><use xlink:href="#a"></use><use xlink:href="#b" x="42.996" y="0"></use><text x="0" y="1.67" class="c">&gt;</text><text x="2.004" y="1.67" class="c">xaringan_to_pdf(&quot;https://slides.garrickad</text></svg><svg x="3440"><use xlink:href="#a"></use><use xlink:href="#b" x="43.996" y="0"></use><text x="0" y="1.67" class="c">&gt;</text><text x="2.004" y="1.67" class="c">xaringan_to_pdf(&quot;https://slides.garrickade</text></svg><svg x="3520"><use xlink:href="#a"></use><use xlink:href="#b" x="44.996" y="0"></use><text x="0" y="1.67" class="c">&gt;</text><text x="2.004" y="1.67" class="c">xaringan_to_pdf(&quot;https://slides.garrickaden</text></svg><svg x="3600"><use xlink:href="#a"></use><use xlink:href="#b" x="45.996" y="0"></use><text x="0" y="1.67" class="c">&gt;</text><text x="2.004" y="1.67" class="c">xaringan_to_pdf(&quot;https://slides.garrickadenb</text></svg><svg x="3680"><use xlink:href="#a"></use><use xlink:href="#b" x="46.996" y="0"></use><text x="0" y="1.67" class="c">&gt;</text><text x="2.004" y="1.67" class="c">xaringan_to_pdf(&quot;https://slides.garrickadenbu</text></svg><svg x="3760"><use xlink:href="#a"></use><use xlink:href="#b" x="47.996" y="0"></use><text x="0" y="1.67" class="c">&gt;</text><text x="2.004" y="1.67" class="c">xaringan_to_pdf(&quot;https://slides.garrickadenbui</text></svg><svg x="3840"><use xlink:href="#a"></use><use xlink:href="#b" x="48.996" y="0"></use><text x="0" y="1.67" class="c">&gt;</text><text x="2.004" y="1.67" class="c">xaringan_to_pdf(&quot;https://slides.garrickadenbuie</text></svg><svg x="3920"><use xlink:href="#a"></use><use xlink:href="#b" x="49.996" y="0"></use><text x="0" y="1.67" class="c">&gt;</text><text x="2.004" y="1.67" class="c">xaringan_to_pdf(&quot;https://slides.garrickadenbuie.</text></svg><svg x="4000"><use xlink:href="#a"></use><use xlink:href="#b" x="50.996" y="0"></use><text x="0" y="1.67" class="c">&gt;</text><text x="2.004" y="1.67" class="c">xaringan_to_pdf(&quot;https://slides.garrickadenbuie.c</text></svg><svg x="4080"><use xlink:href="#a"></use><use xlink:href="#b" x="51.996" y="0"></use><text x="0" y="1.67" class="c">&gt;</text><text x="2.004" y="1.67" class="c">xaringan_to_pdf(&quot;https://slides.garrickadenbuie.co</text></svg><svg x="4160"><use xlink:href="#a"></use><use xlink:href="#b" x="52.996" y="0"></use><text x="0" y="1.67" class="c">&gt;</text><text x="2.004" y="1.67" class="c">xaringan_to_pdf(&quot;https://slides.garrickadenbuie.com</text></svg><svg x="4240"><use xlink:href="#a"></use><use xlink:href="#b" x="53.996" y="0"></use><text x="0" y="1.67" class="c">&gt;</text><text x="2.004" y="1.67" class="c">xaringan_to_pdf(&quot;https://slides.garrickadenbuie.com/</text></svg><svg x="4320"><use xlink:href="#a"></use><use xlink:href="#b" x="54.996" y="0"></use><text x="0" y="1.67" class="c">&gt;</text><text x="2.004" y="1.67" class="c">xaringan_to_pdf(&quot;https://slides.garrickadenbuie.com/e</text></svg><svg x="4400"><use xlink:href="#a"></use><use xlink:href="#b" x="55.996" y="0"></use><text x="0" y="1.67" class="c">&gt;</text><text x="2.004" y="1.67" class="c">xaringan_to_pdf(&quot;https://slides.garrickadenbuie.com/ex</text></svg><svg x="4480"><use xlink:href="#a"></use><use xlink:href="#b" x="56.996" y="0"></use><text x="0" y="1.67" class="c">&gt;</text><text x="2.004" y="1.67" class="c">xaringan_to_pdf(&quot;https://slides.garrickadenbuie.com/ext</text></svg><svg x="4560"><use xlink:href="#a"></use><use xlink:href="#b" x="57.996" y="0"></use><text x="0" y="1.67" class="c">&gt;</text><text x="2.004" y="1.67" class="c">xaringan_to_pdf(&quot;https://slides.garrickadenbuie.com/extr</text></svg><svg x="4640"><use xlink:href="#a"></use><use xlink:href="#b" x="58.996" y="0"></use><text x="0" y="1.67" class="c">&gt;</text><text x="2.004" y="1.67" class="c">xaringan_to_pdf(&quot;https://slides.garrickadenbuie.com/extra</text></svg><svg x="4720"><use xlink:href="#a"></use><use xlink:href="#b" x="59.996" y="0"></use><text x="0" y="1.67" class="c">&gt;</text><text x="2.004" y="1.67" class="c">xaringan_to_pdf(&quot;https://slides.garrickadenbuie.com/extra-</text></svg><svg x="4800"><use xlink:href="#a"></use><use xlink:href="#b" x="60.996" y="0"></use><text x="0" y="1.67" class="c">&gt;</text><text x="2.004" y="1.67" class="c">xaringan_to_pdf(&quot;https://slides.garrickadenbuie.com/extra-s</text></svg><svg x="4880"><use xlink:href="#a"></use><use xlink:href="#b" x="61.996" y="0"></use><text x="0" y="1.67" class="c">&gt;</text><text x="2.004" y="1.67" class="c">xaringan_to_pdf(&quot;https://slides.garrickadenbuie.com/extra-sp</text></svg><svg x="4960"><use xlink:href="#a"></use><use xlink:href="#b" x="62.996" y="0"></use><text x="0" y="1.67" class="c">&gt;</text><text x="2.004" y="1.67" class="c">xaringan_to_pdf(&quot;https://slides.garrickadenbuie.com/extra-spe</text></svg><svg x="5040"><use xlink:href="#a"></use><use xlink:href="#b" x="63.996" y="0"></use><text x="0" y="1.67" class="c">&gt;</text><text x="2.004" y="1.67" class="c">xaringan_to_pdf(&quot;https://slides.garrickadenbuie.com/extra-spec</text></svg><svg x="5120"><use xlink:href="#a"></use><use xlink:href="#b" x="64.996" y="0"></use><text x="0" y="1.67" class="c">&gt;</text><text x="2.004" y="1.67" class="c">xaringan_to_pdf(&quot;https://slides.garrickadenbuie.com/extra-speci</text></svg><svg x="5200"><use xlink:href="#a"></use><use xlink:href="#b" x="65.996" y="0"></use><text x="0" y="1.67" class="c">&gt;</text><text x="2.004" y="1.67" class="c">xaringan_to_pdf(&quot;https://slides.garrickadenbuie.com/extra-specia</text></svg><svg x="5280"><use xlink:href="#a"></use><use xlink:href="#b" x="66.996" y="0"></use><text x="0" y="1.67" class="c">&gt;</text><text x="2.004" y="1.67" class="c">xaringan_to_pdf(&quot;https://slides.garrickadenbuie.com/extra-special</text></svg><svg x="5360"><use xlink:href="#a"></use><use xlink:href="#b" x="67.996" y="0"></use><text x="0" y="1.67" class="c">&gt;</text><text x="2.004" y="1.67" class="c">xaringan_to_pdf(&quot;https://slides.garrickadenbuie.com/extra-special-</text></svg><svg x="5440"><use xlink:href="#a"></use><use xlink:href="#b" x="68.996" y="0"></use><text x="0" y="1.67" class="c">&gt;</text><text x="2.004" y="1.67" class="c">xaringan_to_pdf(&quot;https://slides.garrickadenbuie.com/extra-special-x</text></svg><svg x="5520"><use xlink:href="#a"></use><use xlink:href="#b" x="69.996" y="0"></use><text x="0" y="1.67" class="c">&gt;</text><text x="2.004" y="1.67" class="c">xaringan_to_pdf(&quot;https://slides.garrickadenbuie.com/extra-special-xa</text></svg><svg x="5600"><use xlink:href="#a"></use><use xlink:href="#b" x="70.996" y="0"></use><text x="0" y="1.67" class="c">&gt;</text><text x="2.004" y="1.67" class="c">xaringan_to_pdf(&quot;https://slides.garrickadenbuie.com/extra-special-xar</text></svg><svg x="5680"><use xlink:href="#a"></use><use xlink:href="#b" x="71.996" y="0"></use><text x="0" y="1.67" class="c">&gt;</text><text x="2.004" y="1.67" class="c">xaringan_to_pdf(&quot;https://slides.garrickadenbuie.com/extra-special-xari</text></svg><svg x="5760"><use xlink:href="#a"></use><use xlink:href="#b" x="72.996" y="0"></use><text x="0" y="1.67" class="c">&gt;</text><text x="2.004" y="1.67" class="c">xaringan_to_pdf(&quot;https://slides.garrickadenbuie.com/extra-special-xarin</text></svg><svg x="5840"><use xlink:href="#a"></use><use xlink:href="#b" x="73.996" y="0"></use><text x="0" y="1.67" class="c">&gt;</text><text x="2.004" y="1.67" class="c">xaringan_to_pdf(&quot;https://slides.garrickadenbuie.com/extra-special-xaring</text></svg><svg x="5920"><use xlink:href="#a"></use><use xlink:href="#b" x="74.996" y="0"></use><text x="0" y="1.67" class="c">&gt;</text><text x="2.004" y="1.67" class="c">xaringan_to_pdf(&quot;https://slides.garrickadenbuie.com/extra-special-xaringa</text></svg><svg x="6000"><use xlink:href="#a"></use><use xlink:href="#b" x="75.996" y="0"></use><text x="0" y="1.67" class="c">&gt;</text><text x="2.004" y="1.67" class="c">xaringan_to_pdf(&quot;https://slides.garrickadenbuie.com/extra-special-xaringan</text></svg><svg x="6080"><use xlink:href="#a"></use><use xlink:href="#b" x="76.996" y="0"></use><text x="0" y="1.67" class="c">&gt;</text><text x="2.004" y="1.67" class="c">xaringan_to_pdf(&quot;https://slides.garrickadenbuie.com/extra-special-xaringan&quot;</text></svg><svg x="6160"><use xlink:href="#a"></use><use xlink:href="#b" x="77.996" y="0"></use><use xlink:href="#1" y="0"></use></svg><svg x="6240"><use xlink:href="#a"></use><use xlink:href="#b" x="-0.0040000000000000036" y="2.146"></use><use xlink:href="#1" y="0"></use></svg><svg x="6320"><use xlink:href="#a"></use><use xlink:href="#b" x="77.996" y="2.146"></use><use xlink:href="#1" y="0"></use><text x="0" y="3.8409999999999997" class="d">Slide</text><text x="6.012" y="3.8409999999999997" class="d">2</text><text x="8.016" y="3.8409999999999997" class="d">(1)</text><text x="12.024" y="3.8409999999999997" class="d">[&gt;------------------------------------------------------]</text><text x="70.13999999999999" y="3.8409999999999997" class="d">Eta:</text><text x="75.14999999999999" y="3.8409999999999997" class="d">26s</text></svg><svg x="6400"><use xlink:href="#a"></use><use xlink:href="#b" x="77.996" y="2.146"></use><use xlink:href="#1" y="0"></use><text x="0" y="3.8409999999999997" class="d">Slide</text><text x="6.012" y="3.8409999999999997" class="d">3</text><text x="8.016" y="3.8409999999999997" class="d">(1)</text><text x="12.024" y="3.8409999999999997" class="d">[==&gt;----------------------------------------------------]</text><text x="70.13999999999999" y="3.8409999999999997" class="d">Eta:</text><text x="75.14999999999999" y="3.8409999999999997" class="d">23s</text></svg><svg x="6480"><use xlink:href="#a"></use><use xlink:href="#b" x="77.996" y="2.146"></use><use xlink:href="#1" y="0"></use><text x="0" y="3.8409999999999997" class="d">Slide</text><text x="6.012" y="3.8409999999999997" class="d">4</text><text x="8.016" y="3.8409999999999997" class="d">(1)</text><text x="12.024" y="3.8409999999999997" class="d">[===&gt;---------------------------------------------------]</text><text x="70.13999999999999" y="3.8409999999999997" class="d">Eta:</text><text x="75.14999999999999" y="3.8409999999999997" class="d">23s</text></svg><svg x="6560"><use xlink:href="#a"></use><use xlink:href="#b" x="77.996" y="2.146"></use><use xlink:href="#1" y="0"></use><text x="0" y="3.8409999999999997" class="d">Slide</text><text x="6.012" y="3.8409999999999997" class="d">5</text><text x="8.016" y="3.8409999999999997" class="d">(1)</text><text x="12.024" y="3.8409999999999997" class="d">[=====&gt;-------------------------------------------------]</text><text x="70.13999999999999" y="3.8409999999999997" class="d">Eta:</text><text x="75.14999999999999" y="3.8409999999999997" class="d">21s</text></svg><svg x="6640"><use xlink:href="#a"></use><use xlink:href="#b" x="77.996" y="2.146"></use><use xlink:href="#1" y="0"></use><text x="0" y="3.8409999999999997" class="d">Slide</text><text x="6.012" y="3.8409999999999997" class="d">6</text><text x="8.016" y="3.8409999999999997" class="d">(1)</text><text x="12.024" y="3.8409999999999997" class="d">[======&gt;------------------------------------------------]</text><text x="70.13999999999999" y="3.8409999999999997" class="d">Eta:</text><text x="75.14999999999999" y="3.8409999999999997" class="d">21s</text></svg><svg x="6720"><use xlink:href="#a"></use><use xlink:href="#b" x="77.996" y="2.146"></use><use xlink:href="#1" y="0"></use><text x="0" y="3.8409999999999997" class="d">Slide</text><text x="6.012" y="3.8409999999999997" class="d">7</text><text x="8.016" y="3.8409999999999997" class="d">(1)</text><text x="12.024" y="3.8409999999999997" class="d">[=======&gt;-----------------------------------------------]</text><text x="70.13999999999999" y="3.8409999999999997" class="d">Eta:</text><text x="75.14999999999999" y="3.8409999999999997" class="d">20s</text></svg><svg x="6800"><use xlink:href="#a"></use><use xlink:href="#b" x="77.996" y="2.146"></use><use xlink:href="#1" y="0"></use><text x="0" y="3.8409999999999997" class="d">Slide</text><text x="6.012" y="3.8409999999999997" class="d">8</text><text x="8.016" y="3.8409999999999997" class="d">(1)</text><text x="12.024" y="3.8409999999999997" class="d">[=========&gt;---------------------------------------------]</text><text x="70.13999999999999" y="3.8409999999999997" class="d">Eta:</text><text x="75.14999999999999" y="3.8409999999999997" class="d">19s</text></svg><svg x="6880"><use xlink:href="#a"></use><use xlink:href="#b" x="77.996" y="2.146"></use><use xlink:href="#1" y="0"></use><text x="0" y="3.8409999999999997" class="d">Slide</text><text x="6.012" y="3.8409999999999997" class="d">9</text><text x="8.016" y="3.8409999999999997" class="d">(1)</text><text x="12.024" y="3.8409999999999997" class="d">[==========&gt;--------------------------------------------]</text><text x="70.13999999999999" y="3.8409999999999997" class="d">Eta:</text><text x="75.14999999999999" y="3.8409999999999997" class="d">18s</text></svg><svg x="6960"><use xlink:href="#a"></use><use xlink:href="#b" x="77.996" y="2.146"></use><use xlink:href="#1" y="0"></use><text x="0" y="3.8409999999999997" class="d">Slide</text><text x="6.012" y="3.8409999999999997" class="d">10</text><text x="9.017999999999999" y="3.8409999999999997" class="d">(1)</text><text x="13.026" y="3.8409999999999997" class="d">[===========&gt;------------------------------------------]</text><text x="70.13999999999999" y="3.8409999999999997" class="d">Eta:</text><text x="75.14999999999999" y="3.8409999999999997" class="d">17s</text></svg><svg x="7040"><use xlink:href="#a"></use><use xlink:href="#b" x="77.996" y="2.146"></use><use xlink:href="#1" y="0"></use><text x="0" y="3.8409999999999997" class="d">Slide</text><text x="6.012" y="3.8409999999999997" class="d">11</text><text x="9.017999999999999" y="3.8409999999999997" class="d">(1)</text><text x="13.026" y="3.8409999999999997" class="d">[=============&gt;----------------------------------------]</text><text x="70.13999999999999" y="3.8409999999999997" class="d">Eta:</text><text x="75.14999999999999" y="3.8409999999999997" class="d">17s</text></svg><svg x="7120"><use xlink:href="#a"></use><use xlink:href="#b" x="77.996" y="2.146"></use><use xlink:href="#1" y="0"></use><text x="0" y="3.8409999999999997" class="d">Slide</text><text x="6.012" y="3.8409999999999997" class="d">12</text><text x="9.017999999999999" y="3.8409999999999997" class="d">(1)</text><text x="13.026" y="3.8409999999999997" class="d">[==============&gt;---------------------------------------]</text><text x="70.13999999999999" y="3.8409999999999997" class="d">Eta:</text><text x="75.14999999999999" y="3.8409999999999997" class="d">16s</text></svg><svg x="7200"><use xlink:href="#a"></use><use xlink:href="#b" x="77.996" y="2.146"></use><use xlink:href="#1" y="0"></use><text x="0" y="3.8409999999999997" class="d">Slide</text><text x="6.012" y="3.8409999999999997" class="d">13</text><text x="9.017999999999999" y="3.8409999999999997" class="d">(1)</text><text x="13.026" y="3.8409999999999997" class="d">[===============&gt;--------------------------------------]</text><text x="70.13999999999999" y="3.8409999999999997" class="d">Eta:</text><text x="75.14999999999999" y="3.8409999999999997" class="d">15s</text></svg><svg x="7280"><use xlink:href="#a"></use><use xlink:href="#b" x="77.996" y="2.146"></use><use xlink:href="#1" y="0"></use><text x="0" y="3.8409999999999997" class="d">Slide</text><text x="6.012" y="3.8409999999999997" class="d">14</text><text x="9.017999999999999" y="3.8409999999999997" class="d">(1)</text><text x="13.026" y="3.8409999999999997" class="d">[=================&gt;------------------------------------]</text><text x="70.13999999999999" y="3.8409999999999997" class="d">Eta:</text><text x="75.14999999999999" y="3.8409999999999997" class="d">15s</text></svg><svg x="7360"><use xlink:href="#a"></use><use xlink:href="#b" x="77.996" y="2.146"></use><use xlink:href="#1" y="0"></use><text x="0" y="3.8409999999999997" class="d">Slide</text><text x="6.012" y="3.8409999999999997" class="d">15</text><text x="9.017999999999999" y="3.8409999999999997" class="d">(1)</text><text x="13.026" y="3.8409999999999997" class="d">[==================&gt;-----------------------------------]</text><text x="70.13999999999999" y="3.8409999999999997" class="d">Eta:</text><text x="75.14999999999999" y="3.8409999999999997" class="d">14s</text></svg><svg x="7440"><use xlink:href="#a"></use><use xlink:href="#b" x="77.996" y="2.146"></use><use xlink:href="#1" y="0"></use><text x="0" y="3.8409999999999997" class="d">Slide</text><text x="6.012" y="3.8409999999999997" class="d">16</text><text x="9.017999999999999" y="3.8409999999999997" class="d">(1)</text><text x="13.026" y="3.8409999999999997" class="d">[===================&gt;----------------------------------]</text><text x="70.13999999999999" y="3.8409999999999997" class="d">Eta:</text><text x="75.14999999999999" y="3.8409999999999997" class="d">14s</text></svg><svg x="7520"><use xlink:href="#a"></use><use xlink:href="#b" x="77.996" y="2.146"></use><use xlink:href="#1" y="0"></use><text x="0" y="3.8409999999999997" class="d">Slide</text><text x="6.012" y="3.8409999999999997" class="d">16</text><text x="9.017999999999999" y="3.8409999999999997" class="d">(2)</text><text x="13.026" y="3.8409999999999997" class="d">[===================&gt;----------------------------------]</text><text x="70.13999999999999" y="3.8409999999999997" class="d">Eta:</text><text x="75.14999999999999" y="3.8409999999999997" class="d">15s</text></svg><svg x="7600"><use xlink:href="#a"></use><use xlink:href="#b" x="77.996" y="2.146"></use><use xlink:href="#1" y="0"></use><text x="0" y="3.8409999999999997" class="d">Slide</text><text x="6.012" y="3.8409999999999997" class="d">16</text><text x="9.017999999999999" y="3.8409999999999997" class="d">(3)</text><text x="13.026" y="3.8409999999999997" class="d">[===================&gt;----------------------------------]</text><text x="70.13999999999999" y="3.8409999999999997" class="d">Eta:</text><text x="75.14999999999999" y="3.8409999999999997" class="d">16s</text></svg><svg x="7680"><use xlink:href="#a"></use><use xlink:href="#b" x="77.996" y="2.146"></use><use xlink:href="#1" y="0"></use><text x="0" y="3.8409999999999997" class="d">Slide</text><text x="6.012" y="3.8409999999999997" class="d">17</text><text x="9.017999999999999" y="3.8409999999999997" class="d">(1)</text><text x="13.026" y="3.8409999999999997" class="d">[=====================&gt;--------------------------------]</text><text x="70.13999999999999" y="3.8409999999999997" class="d">Eta:</text><text x="75.14999999999999" y="3.8409999999999997" class="d">15s</text></svg><svg x="7760"><use xlink:href="#a"></use><use xlink:href="#b" x="77.996" y="2.146"></use><use xlink:href="#1" y="0"></use><text x="0" y="3.8409999999999997" class="d">Slide</text><text x="6.012" y="3.8409999999999997" class="d">18</text><text x="9.017999999999999" y="3.8409999999999997" class="d">(1)</text><text x="13.026" y="3.8409999999999997" class="d">[======================&gt;-------------------------------]</text><text x="70.13999999999999" y="3.8409999999999997" class="d">Eta:</text><text x="75.14999999999999" y="3.8409999999999997" class="d">14s</text></svg><svg x="7840"><use xlink:href="#a"></use><use xlink:href="#b" x="77.996" y="2.146"></use><use xlink:href="#1" y="0"></use><text x="0" y="3.8409999999999997" class="d">Slide</text><text x="6.012" y="3.8409999999999997" class="d">19</text><text x="9.017999999999999" y="3.8409999999999997" class="d">(1)</text><text x="13.026" y="3.8409999999999997" class="d">[=======================&gt;------------------------------]</text><text x="70.13999999999999" y="3.8409999999999997" class="d">Eta:</text><text x="75.14999999999999" y="3.8409999999999997" class="d">13s</text></svg><svg x="7920"><use xlink:href="#a"></use><use xlink:href="#b" x="77.996" y="2.146"></use><use xlink:href="#1" y="0"></use><text x="0" y="3.8409999999999997" class="d">Slide</text><text x="6.012" y="3.8409999999999997" class="d">20</text><text x="9.017999999999999" y="3.8409999999999997" class="d">(1)</text><text x="13.026" y="3.8409999999999997" class="d">[=========================&gt;----------------------------]</text><text x="70.13999999999999" y="3.8409999999999997" class="d">Eta:</text><text x="75.14999999999999" y="3.8409999999999997" class="d">13s</text></svg><svg x="8000"><use xlink:href="#a"></use><use xlink:href="#b" x="77.996" y="2.146"></use><use xlink:href="#1" y="0"></use><text x="0" y="3.8409999999999997" class="d">Slide</text><text x="6.012" y="3.8409999999999997" class="d">21</text><text x="9.017999999999999" y="3.8409999999999997" class="d">(1)</text><text x="13.026" y="3.8409999999999997" class="d">[==========================&gt;---------------------------]</text><text x="70.13999999999999" y="3.8409999999999997" class="d">Eta:</text><text x="75.14999999999999" y="3.8409999999999997" class="d">12s</text></svg><svg x="8080"><use xlink:href="#a"></use><use xlink:href="#b" x="77.996" y="2.146"></use><use xlink:href="#1" y="0"></use><text x="0" y="3.8409999999999997" class="d">Slide</text><text x="6.012" y="3.8409999999999997" class="d">22</text><text x="9.017999999999999" y="3.8409999999999997" class="d">(1)</text><text x="13.026" y="3.8409999999999997" class="d">[===========================&gt;--------------------------]</text><text x="70.13999999999999" y="3.8409999999999997" class="d">Eta:</text><text x="75.14999999999999" y="3.8409999999999997" class="d">11s</text></svg><svg x="8160"><use xlink:href="#a"></use><use xlink:href="#b" x="77.996" y="2.146"></use><use xlink:href="#1" y="0"></use><text x="0" y="3.8409999999999997" class="d">Slide</text><text x="6.012" y="3.8409999999999997" class="d">23</text><text x="9.017999999999999" y="3.8409999999999997" class="d">(1)</text><text x="13.026" y="3.8409999999999997" class="d">[=============================&gt;------------------------]</text><text x="70.13999999999999" y="3.8409999999999997" class="d">Eta:</text><text x="75.14999999999999" y="3.8409999999999997" class="d">11s</text></svg><svg x="8240"><use xlink:href="#a"></use><use xlink:href="#b" x="77.996" y="2.146"></use><use xlink:href="#1" y="0"></use><text x="0" y="3.8409999999999997" class="d">Slide</text><text x="6.012" y="3.8409999999999997" class="d">24</text><text x="9.017999999999999" y="3.8409999999999997" class="d">(1)</text><text x="13.026" y="3.8409999999999997" class="d">[==============================&gt;-----------------------]</text><text x="70.13999999999999" y="3.8409999999999997" class="d">Eta:</text><text x="75.14999999999999" y="3.8409999999999997" class="d">10s</text></svg><svg x="8320"><use xlink:href="#a"></use><use xlink:href="#b" x="77.996" y="2.146"></use><use xlink:href="#1" y="0"></use><text x="0" y="3.8409999999999997" class="d">Slide</text><text x="6.012" y="3.8409999999999997" class="d">25</text><text x="9.017999999999999" y="3.8409999999999997" class="d">(1)</text><text x="13.026" y="3.8409999999999997" class="d">[===============================&gt;----------------------]</text><text x="70.13999999999999" y="3.8409999999999997" class="d">Eta:</text><text x="76.15199999999999" y="3.8409999999999997" class="d">9s</text></svg><svg x="8400"><use xlink:href="#a"></use><use xlink:href="#b" x="77.996" y="2.146"></use><use xlink:href="#1" y="0"></use><text x="0" y="3.8409999999999997" class="d">Slide</text><text x="6.012" y="3.8409999999999997" class="d">26</text><text x="9.017999999999999" y="3.8409999999999997" class="d">(1)</text><text x="13.026" y="3.8409999999999997" class="d">[=================================&gt;--------------------]</text><text x="70.13999999999999" y="3.8409999999999997" class="d">Eta:</text><text x="76.15199999999999" y="3.8409999999999997" class="d">9s</text></svg><svg x="8480"><use xlink:href="#a"></use><use xlink:href="#b" x="77.996" y="2.146"></use><use xlink:href="#1" y="0"></use><text x="0" y="3.8409999999999997" class="d">Slide</text><text x="6.012" y="3.8409999999999997" class="d">27</text><text x="9.017999999999999" y="3.8409999999999997" class="d">(1)</text><text x="13.026" y="3.8409999999999997" class="d">[==================================&gt;-------------------]</text><text x="70.13999999999999" y="3.8409999999999997" class="d">Eta:</text><text x="76.15199999999999" y="3.8409999999999997" class="d">8s</text></svg><svg x="8560"><use xlink:href="#a"></use><use xlink:href="#b" x="77.996" y="2.146"></use><use xlink:href="#1" y="0"></use><text x="0" y="3.8409999999999997" class="d">Slide</text><text x="6.012" y="3.8409999999999997" class="d">28</text><text x="9.017999999999999" y="3.8409999999999997" class="d">(1)</text><text x="13.026" y="3.8409999999999997" class="d">[===================================&gt;------------------]</text><text x="70.13999999999999" y="3.8409999999999997" class="d">Eta:</text><text x="76.15199999999999" y="3.8409999999999997" class="d">8s</text></svg><svg x="8640"><use xlink:href="#a"></use><use xlink:href="#b" x="77.996" y="2.146"></use><use xlink:href="#1" y="0"></use><text x="0" y="3.8409999999999997" class="d">Slide</text><text x="6.012" y="3.8409999999999997" class="d">29</text><text x="9.017999999999999" y="3.8409999999999997" class="d">(1)</text><text x="13.026" y="3.8409999999999997" class="d">[=====================================&gt;----------------]</text><text x="70.13999999999999" y="3.8409999999999997" class="d">Eta:</text><text x="76.15199999999999" y="3.8409999999999997" class="d">7s</text></svg><svg x="8720"><use xlink:href="#a"></use><use xlink:href="#b" x="77.996" y="2.146"></use><use xlink:href="#1" y="0"></use><text x="0" y="3.8409999999999997" class="d">Slide</text><text x="6.012" y="3.8409999999999997" class="d">30</text><text x="9.017999999999999" y="3.8409999999999997" class="d">(1)</text><text x="13.026" y="3.8409999999999997" class="d">[======================================&gt;---------------]</text><text x="70.13999999999999" y="3.8409999999999997" class="d">Eta:</text><text x="76.15199999999999" y="3.8409999999999997" class="d">6s</text></svg><svg x="8800"><use xlink:href="#a"></use><use xlink:href="#b" x="77.996" y="2.146"></use><use xlink:href="#1" y="0"></use><text x="0" y="3.8409999999999997" class="d">Slide</text><text x="6.012" y="3.8409999999999997" class="d">31</text><text x="9.017999999999999" y="3.8409999999999997" class="d">(1)</text><text x="13.026" y="3.8409999999999997" class="d">[=======================================&gt;--------------]</text><text x="70.13999999999999" y="3.8409999999999997" class="d">Eta:</text><text x="76.15199999999999" y="3.8409999999999997" class="d">6s</text></svg><svg x="8880"><use xlink:href="#a"></use><use xlink:href="#b" x="77.996" y="2.146"></use><use xlink:href="#1" y="0"></use><text x="0" y="3.8409999999999997" class="d">Slide</text><text x="6.012" y="3.8409999999999997" class="d">32</text><text x="9.017999999999999" y="3.8409999999999997" class="d">(1)</text><text x="13.026" y="3.8409999999999997" class="d">[=========================================&gt;------------]</text><text x="70.13999999999999" y="3.8409999999999997" class="d">Eta:</text><text x="76.15199999999999" y="3.8409999999999997" class="d">5s</text></svg><svg x="8960"><use xlink:href="#a"></use><use xlink:href="#b" x="77.996" y="2.146"></use><use xlink:href="#1" y="0"></use><text x="0" y="3.8409999999999997" class="d">Slide</text><text x="6.012" y="3.8409999999999997" class="d">33</text><text x="9.017999999999999" y="3.8409999999999997" class="d">(1)</text><text x="13.026" y="3.8409999999999997" class="d">[==========================================&gt;-----------]</text><text x="70.13999999999999" y="3.8409999999999997" class="d">Eta:</text><text x="76.15199999999999" y="3.8409999999999997" class="d">5s</text></svg><svg x="9040"><use xlink:href="#a"></use><use xlink:href="#b" x="77.996" y="2.146"></use><use xlink:href="#1" y="0"></use><text x="0" y="3.8409999999999997" class="d">Slide</text><text x="6.012" y="3.8409999999999997" class="d">34</text><text x="9.017999999999999" y="3.8409999999999997" class="d">(1)</text><text x="13.026" y="3.8409999999999997" class="d">[============================================&gt;---------]</text><text x="70.13999999999999" y="3.8409999999999997" class="d">Eta:</text><text x="76.15199999999999" y="3.8409999999999997" class="d">4s</text></svg><svg x="9120"><use xlink:href="#a"></use><use xlink:href="#b" x="77.996" y="2.146"></use><use xlink:href="#1" y="0"></use><text x="0" y="3.8409999999999997" class="d">Slide</text><text x="6.012" y="3.8409999999999997" class="d">35</text><text x="9.017999999999999" y="3.8409999999999997" class="d">(1)</text><text x="13.026" y="3.8409999999999997" class="d">[=============================================&gt;--------]</text><text x="70.13999999999999" y="3.8409999999999997" class="d">Eta:</text><text x="76.15199999999999" y="3.8409999999999997" class="d">3s</text></svg><svg x="9200"><use xlink:href="#a"></use><use xlink:href="#b" x="77.996" y="2.146"></use><use xlink:href="#1" y="0"></use><text x="0" y="3.8409999999999997" class="d">Slide</text><text x="6.012" y="3.8409999999999997" class="d">36</text><text x="9.017999999999999" y="3.8409999999999997" class="d">(1)</text><text x="13.026" y="3.8409999999999997" class="d">[==============================================&gt;-------]</text><text x="70.13999999999999" y="3.8409999999999997" class="d">Eta:</text><text x="76.15199999999999" y="3.8409999999999997" class="d">3s</text></svg><svg x="9280"><use xlink:href="#a"></use><use xlink:href="#b" x="77.996" y="2.146"></use><use xlink:href="#1" y="0"></use><text x="0" y="3.8409999999999997" class="d">Slide</text><text x="6.012" y="3.8409999999999997" class="d">37</text><text x="9.017999999999999" y="3.8409999999999997" class="d">(1)</text><text x="13.026" y="3.8409999999999997" class="d">[================================================&gt;-----]</text><text x="70.13999999999999" y="3.8409999999999997" class="d">Eta:</text><text x="76.15199999999999" y="3.8409999999999997" class="d">2s</text></svg><svg x="9360"><use xlink:href="#a"></use><use xlink:href="#b" x="77.996" y="2.146"></use><use xlink:href="#1" y="0"></use><text x="0" y="3.8409999999999997" class="d">Slide</text><text x="6.012" y="3.8409999999999997" class="d">38</text><text x="9.017999999999999" y="3.8409999999999997" class="d">(1)</text><text x="13.026" y="3.8409999999999997" class="d">[=================================================&gt;----]</text><text x="70.13999999999999" y="3.8409999999999997" class="d">Eta:</text><text x="76.15199999999999" y="3.8409999999999997" class="d">2s</text></svg><svg x="9440"><use xlink:href="#a"></use><use xlink:href="#b" x="77.996" y="2.146"></use><use xlink:href="#1" y="0"></use><text x="0" y="3.8409999999999997" class="d">Slide</text><text x="6.012" y="3.8409999999999997" class="d">39</text><text x="9.017999999999999" y="3.8409999999999997" class="d">(1)</text><text x="13.026" y="3.8409999999999997" class="d">[==================================================&gt;---]</text><text x="70.13999999999999" y="3.8409999999999997" class="d">Eta:</text><text x="76.15199999999999" y="3.8409999999999997" class="d">1s</text></svg><svg x="9520"><use xlink:href="#a"></use><use xlink:href="#b" x="77.996" y="2.146"></use><use xlink:href="#1" y="0"></use><text x="0" y="3.8409999999999997" class="d">Slide</text><text x="6.012" y="3.8409999999999997" class="d">40</text><text x="9.017999999999999" y="3.8409999999999997" class="d">(1)</text><text x="13.026" y="3.8409999999999997" class="d">[====================================================&gt;-]</text><text x="70.13999999999999" y="3.8409999999999997" class="d">Eta:</text><text x="76.15199999999999" y="3.8409999999999997" class="d">1s</text></svg><svg x="9600"><use xlink:href="#a"></use><use xlink:href="#b" x="77.996" y="2.146"></use><use xlink:href="#1" y="0"></use><use xlink:href="#2" y="2.171"></use></svg><svg x="9680"><use xlink:href="#a"></use><use xlink:href="#b" x="77.996" y="2.146"></use><use xlink:href="#1" y="0"></use><use xlink:href="#2" y="2.171"></use></svg></svg></g></g></svg></svg>