<svg xmlns="http://www.w3.org/2000/svg" xmlns:xlink="http://www.w3.org/1999/xlink" width="1066.67" height="800" viewBox="0 0 1066.667 800"><defs><path id="b6pZvV1Wj" d="M327.39 15C232.7 66.29 180.1 94.78 169.58 100.48c11.13 19.18 4.62 43.75-14.56 54.88-19.17 11.14-43.74 4.62-54.88-14.55-.4-.69-.78-1.39-1.14-2.1-3.58 1.94-21.52 11.66-53.81 29.14l139.39 257.34 282.2-152.86L327.39 15z"/><path id="cDUpBT92h" d="M135.06 87.23c-17.99 0-32.58 14.59-32.58 32.58 0 18 14.59 32.58 32.58 32.58s32.58-14.58 32.58-32.58c0-17.99-14.59-32.58-32.58-32.58z"/><path id="dH5VXrVF7" d="M723.67 703.91c102.38-33.4 159.26-51.95 170.64-55.66-7.5-20.87 3.33-43.86 24.19-51.36 20.87-7.51 43.87 3.33 51.37 24.19.27.75.51 1.51.74 2.28 3.88-1.27 23.27-7.59 58.18-18.98l-90.76-278.23-305.11 99.52 90.75 278.24z"/><path id="cqY5DthNn" d="M932.77 602.52c-18 0-32.58 14.59-32.58 32.58s14.58 32.58 32.58 32.58c17.99 0 32.58-14.59 32.58-32.58s-14.59-32.58-32.58-32.58z"/><path id="a8etuEIY2v" d="M847.19 75.51c-8.15 0-14.75 6.61-14.75 14.75 0 8.15 6.6 14.75 14.75 14.75s14.75-6.6 14.75-14.75c0-8.14-6.6-14.75-14.75-14.75z"/><path id="eBpyZrEen" d="M940.46 168.48V526.4H152.64V168.48h787.82z"/><path id="a13SR5bbG2" d="M771.3 509.23v7h-53.98v-7h53.98z"/><path id="cimweEpj2" d="M907.18 193.77v311.42H168.14V193.77h739.04z"/><path id="e3KXoRDjE" d="M849.98 490.22v25H776v-25h73.98z"/><path id="c3J5UNjXPL" d="M906.18 204.96v301.23H276.54V204.96h629.64z"/><path id="g4tL5s4QOG" d="M307.76 427.28h592.43"/><path id="b3JrRg0bR" d="M307.76 363.76h592.43"/><path id="e5WoonzK6" d="M307.76 300.24h592.43"/><path id="c1jNSaERF" d="M307.76 236.72h592.43"/><path id="m2IR27yS07" d="M882.42 470.63V197.37"/><path id="d2plIwiYrc" d="M767.83 470.63V197.37"/><path id="b4IQRnJ34G" d="M653.25 470.63V197.37"/><path id="a2ZMqcpgKw" d="M538.66 470.63V197.37"/><path id="c2524QDrId" d="M424.07 470.63V197.37"/><path id="h3egw9M" d="M309.48 470.63V197.37"/><path id="bwUbVNQSs" d="M630.33 382.71c-2.87 0-5.19 2.32-5.19 5.19 0 2.86 2.32 5.19 5.19 5.19 2.86 0 5.19-2.33 5.19-5.19 0-2.87-2.33-5.19-5.19-5.19z"/><path id="m4FZ20Zvz" d="M630.33 366.52c-2.87 0-5.19 2.32-5.19 5.19 0 2.86 2.32 5.19 5.19 5.19 2.86 0 5.19-2.33 5.19-5.19 0-2.87-2.33-5.19-5.19-5.19z"/><path id="a4kt9zniI2" d="M589.07 401.77c-2.86 0-5.19 2.33-5.19 5.19 0 2.87 2.33 5.19 5.19 5.19 2.87 0 5.19-2.32 5.19-5.19 0-2.86-2.32-5.19-5.19-5.19z"/><path id="d2kUdZ1ljd" d="M552.41 346.5c-2.87 0-5.19 2.33-5.19 5.19 0 2.87 2.32 5.19 5.19 5.19 2.87 0 5.19-2.32 5.19-5.19 0-2.86-2.32-5.19-5.19-5.19z"/><path id="l7z3UUgSl" d="M589.07 349.04c-2.86 0-5.19 2.32-5.19 5.19 0 2.86 2.33 5.19 5.19 5.19 2.87 0 5.19-2.33 5.19-5.19 0-2.87-2.32-5.19-5.19-5.19z"/><path id="a5FGxT5Yqw" d="M671.58 330.62c-2.86 0-5.19 2.32-5.19 5.19 0 2.87 2.33 5.19 5.19 5.19 2.87 0 5.19-2.32 5.19-5.19 0-2.87-2.32-5.19-5.19-5.19z"/><path id="fxEemaPCl" d="M703.66 330.62c-2.86 0-5.18 2.32-5.18 5.19a5.185 5.185 0 0 0 10.37 0c0-2.87-2.32-5.19-5.19-5.19z"/><path id="a6e5Gebt16" d="M369.07 409.39c-2.86 0-5.19 2.32-5.19 5.19 0 2.87 2.33 5.19 5.19 5.19 2.87 0 5.19-2.32 5.19-5.19 0-2.87-2.32-5.19-5.19-5.19z"/><path id="c3tSAq2Dw" d="M334.69 432.58c-2.86 0-5.19 2.32-5.19 5.18 0 2.87 2.33 5.19 5.19 5.19a5.185 5.185 0 1 0 0-10.37z"/><path id="f2XlrGWVJ" d="M485.95 426.23a5.185 5.185 0 0 0 0 10.37c2.86 0 5.19-2.32 5.19-5.19 0-2.86-2.33-5.18-5.19-5.18z"/><path id="c2DVz2ul4I" d="M621.17 372.55c-2.87 0-5.19 2.33-5.19 5.19 0 2.87 2.32 5.19 5.19 5.19 2.86 0 5.19-2.32 5.19-5.19 0-2.86-2.33-5.19-5.19-5.19z"/><path id="a31J7aeVtZ" d="M621.17 344.92c-2.87 0-5.19 2.32-5.19 5.19 0 2.86 2.32 5.19 5.19 5.19 2.86 0 5.19-2.33 5.19-5.19 0-2.87-2.33-5.19-5.19-5.19z"/><path id="a7xePfH0y" d="M683.04 330.62c-2.87 0-5.19 2.32-5.19 5.19 0 2.87 2.32 5.19 5.19 5.19 2.86 0 5.19-2.32 5.19-5.19 0-2.87-2.33-5.19-5.19-5.19z"/><path id="bExSb2OdH" d="M783.88 322.37c-2.87 0-5.19 2.32-5.19 5.19 0 2.86 2.32 5.19 5.19 5.19 2.86 0 5.19-2.33 5.19-5.19 0-2.87-2.33-5.19-5.19-5.19z"/><path id="e35Lo0DWe8" d="M735.75 290.6c-2.87 0-5.19 2.32-5.19 5.19 0 2.87 2.32 5.19 5.19 5.19 2.86 0 5.19-2.32 5.19-5.19 0-2.87-2.33-5.19-5.19-5.19z"/><path id="a1ks7dDGPZ" d="M715.12 312.2c-2.87 0-5.19 2.32-5.19 5.19 0 2.87 2.32 5.19 5.19 5.19 2.87 0 5.19-2.32 5.19-5.19 0-2.87-2.32-5.19-5.19-5.19z"/><path id="b3MeGOUKS2" d="M763.25 309.03c-2.87 0-5.19 2.32-5.19 5.19 0 2.87 2.32 5.19 5.19 5.19 2.87 0 5.19-2.32 5.19-5.19 0-2.87-2.32-5.19-5.19-5.19z"/><path id="d1yoGeXfhg" d="M873.26 215.65c-2.86 0-5.19 2.32-5.19 5.19 0 2.86 2.33 5.18 5.19 5.18a5.185 5.185 0 0 0 0-10.37z"/><path id="hrRZIuScv" d="M774.71 209.61c-2.87 0-5.19 2.33-5.19 5.19 0 2.87 2.32 5.19 5.19 5.19 2.86 0 5.19-2.32 5.19-5.19 0-2.86-2.33-5.19-5.19-5.19z"/><path id="c5D4FH1Joe" d="M618.87 392.56c-2.86 0-5.19 2.32-5.19 5.19 0 2.86 2.33 5.18 5.19 5.18a5.185 5.185 0 0 0 0-10.37z"/><path id="e3cqrogF3N" d="M756.37 325.54c-2.86 0-5.18 2.32-5.18 5.19 0 2.86 2.32 5.19 5.18 5.19 2.87 0 5.19-2.33 5.19-5.19 0-2.87-2.32-5.19-5.19-5.19z"/><path id="cq2iv34vu" d="M806.8 305.22a5.185 5.185 0 1 0 0 10.37 5.185 5.185 0 0 0 0-10.37z"/><path id="bgmrCx9ov" d="M671.58 304.9c-2.86 0-5.19 2.32-5.19 5.19 0 2.86 2.33 5.19 5.19 5.19 2.87 0 5.19-2.33 5.19-5.19 0-2.87-2.32-5.19-5.19-5.19z"/><path id="d1faOD1GQy" d="M515.74 413.21a5.185 5.185 0 1 0 0 0z"/><path id="hhoWPG4g4" d="M767.83 322.37c-2.86 0-5.19 2.32-5.19 5.19 0 2.86 2.33 5.19 5.19 5.19 2.87 0 5.19-2.33 5.19-5.19 0-2.87-2.32-5.19-5.19-5.19z"/><path id="a2d4VIiso" d="M660.13 373.19a5.185 5.185 0 1 0-.01 10.37 5.185 5.185 0 0 0 .01-10.37z"/><path id="bkaSNe04k" d="M749.5 347.77c-2.87 0-5.19 2.32-5.19 5.19 0 2.87 2.32 5.19 5.19 5.19 2.86 0 5.19-2.32 5.19-5.19 0-2.87-2.33-5.19-5.19-5.19z"/><path id="ggwxWlTYN" d="M415.91 453.03c-2.87 0-5.19 2.32-5.19 5.19 0 2.86 2.32 5.19 5.19 5.19 2.86 0 5.19-2.33 5.19-5.19 0-2.87-2.33-5.19-5.19-5.19z"/><text style="line-height:100%" id="a9tepWJHO" x="18.63" y="211.03" alignment-baseline="before-edge" dominant-baseline="text-before-edge" font-family="Open Sans" font-size="4" letter-spacing="0" transform="translate(278.274 211.027)"><tspan x="18.63" alignment-baseline="before-edge" dominant-baseline="text-before-edge" dy="0em">2</tspan></text><text style="line-height:100%" id="aRAfxLaqf" x="18.63" y="152.92" alignment-baseline="before-edge" dominant-baseline="text-before-edge" font-family="Open Sans" font-size="4" letter-spacing="0" transform="translate(278.274 205.615)"><tspan x="18.63" alignment-baseline="before-edge" dominant-baseline="text-before-edge" dy="0em">3</tspan></text><text style="line-height:100%" id="b2xlizht4o" x="18.63" y="94.81" alignment-baseline="before-edge" dominant-baseline="text-before-edge" font-family="Open Sans" font-size="4" letter-spacing="0" transform="translate(278.274 200.204)"><tspan x="18.63" alignment-baseline="before-edge" dominant-baseline="text-before-edge" dy="0em">4</tspan></text><text style="line-height:100%" id="b3SoEK3bUe" x="18.63" y="36.7" alignment-baseline="before-edge" dominant-baseline="text-before-edge" font-family="Open Sans" font-size="4" letter-spacing="0" transform="translate(278.274 194.793)"><tspan x="18.63" alignment-baseline="before-edge" dominant-baseline="text-before-edge" dy="0em">5</tspan></text><text style="line-height:100%" id="b3jn0z6Zk" x="549.27" y="258.84" alignment-baseline="before-edge" dominant-baseline="text-before-edge" font-family="Open Sans" font-size="4" letter-spacing="0" transform="translate(327.687 215.479)"><tspan x="549.27" alignment-baseline="before-edge" dominant-baseline="text-before-edge" dy="0em">10</tspan></text><text style="line-height:100%" id="f3xASkci" x="444.44" y="258.84" alignment-baseline="before-edge" dominant-baseline="text-before-edge" font-family="Open Sans" font-size="4" letter-spacing="0" transform="translate(317.925 215.479)"><tspan x="444.44" alignment-baseline="before-edge" dominant-baseline="text-before-edge" dy="0em">15</tspan></text><text style="line-height:100%" id="a3AY2dVM8X" x="339.61" y="258.84" alignment-baseline="before-edge" dominant-baseline="text-before-edge" font-family="Open Sans" font-size="4" letter-spacing="0" transform="translate(308.163 215.479)"><tspan x="339.61" alignment-baseline="before-edge" dominant-baseline="text-before-edge" dy="0em">20</tspan></text><text style="line-height:100%" id="a6zijJBvPG" x="234.78" y="258.84" alignment-baseline="before-edge" dominant-baseline="text-before-edge" font-family="Open Sans" font-size="4" letter-spacing="0" transform="translate(298.402 215.479)"><tspan x="234.78" alignment-baseline="before-edge" dominant-baseline="text-before-edge" dy="0em">25</tspan></text><text style="line-height:100%" id="j2EByK6vRk" x="129.96" y="258.84" alignment-baseline="before-edge" dominant-baseline="text-before-edge" font-family="Open Sans" font-size="4" letter-spacing="0" transform="translate(288.641 215.479)"><tspan x="129.96" alignment-baseline="before-edge" dominant-baseline="text-before-edge" dy="0em">30</tspan></text><text style="line-height:100%" id="b3NF90Xbno" x="25.13" y="258.84" alignment-baseline="before-edge" dominant-baseline="text-before-edge" font-family="Open Sans" font-size="4" letter-spacing="0" transform="translate(278.88 215.479)"><tspan x="25.13" alignment-baseline="before-edge" dominant-baseline="text-before-edge" dy="0em">35</tspan></text><text style="line-height:100%" id="c9DlIqanc" x="288.84" y="268.99" alignment-baseline="before-edge" dominant-baseline="text-before-edge" font-family="Open Sans" font-size="6" letter-spacing="0" transform="translate(303.436 216.424)"><tspan x="288.84" alignment-baseline="before-edge" dominant-baseline="text-before-edge" dy="0em">mpg</tspan></text><text style="line-height:100%" id="c25RyAErrx" y="-11" alignment-baseline="before-edge" dominant-baseline="text-before-edge" font-family="Open Sans" font-size="6" letter-spacing="0" transform="rotate(-90 315.063 24.955)"><tspan x="0" alignment-baseline="before-edge" dominant-baseline="text-before-edge" dy="0em">wt</tspan></text><path id="aLTgajWgV" d="M208.2 276.66l18.27 24.43c1.7-1.58 15.34-14.29 17.05-15.88 0 0-1.22-23.22 2.43-28.11 3.66-4.88-34.1-7.33-34.1-7.33-.73 5.38-2.43 25.66-3.65 26.89z"/><path id="aC7kvQLhb" d="M169.22 461.86l21.93-4.87-15.84-18.27-14.61 9.75 8.52 13.39z"/><path id="a5lqgeJNws" d="M341.6 757.01c0 15.46-68.04 27.99-151.96 27.99-83.93 0-151.97-12.53-151.97-27.99 0-15.46 68.04-28 151.97-28 83.92 0 151.96 12.54 151.96 28z"/><path id="d2jMCPUI22" d="M166.79 737.66l-8.53 1.21-12.18-3.65 3.66-23.14 17.05 3.65v21.93z"/><path id="b7LnxzsGie" d="M154.81 726.69s-3.65-9.74-9.74-8.52l-7.31 8.52s-4.87 18.27-12.18 24.36c0 0-14.62 21.93 0 24.36 0 0 26.79-3.65 26.79-4.87 0 0 3.66-8.53 9.75-9.74 0 0 10.96-2.44 10.96-7.31l-3.65-9.74s-1.22-23.11-3.66-20.08a24.213 24.213 0 0 0-3.65 7.9c-1.46-.98-5.85-3.9-7.31-4.88z"/><path id="f5xX0EeG" d="M214.29 723.04l12.18 2.44 6.09-6.09 1.21-15.84-14.61 1.22-4.87 18.27z"/><path id="fFdFvqe2S" d="M225.86 714.21h3.65s0-8.53 6.09-8.53l4.87 6.09s13.4 20.71 17.05 24.36c0 0 23.15 14.62 7.31 19.49 0 0-26.79 4.87-34.1-3.65 0 0-7.31-3.66-12.18-3.66s-10.96-2.43-10.96-6.09c0-3.65 3.65-10.96 3.65-10.96s2.44-21.92 3.66-19.49c1.21 2.44 3.65 6.09 3.65 6.09 1.46-.73 4.87-3.65 7.31-3.65z"/><path id="a1FT41jc6F" d="M165.57 424.64v40.19s-13.4 77.95-13.4 103.53c0 0-20.7 147.37-10.96 149.81 0 0 32.88 6.09 34.1 2.43 0 0 9.75-119.36 10.96-120.57l26.8-97.44c.32.08 1.95.49 4.87 1.22 1.46 65.77 2.27 102.31 2.44 109.61 0 0-12.18 98.66-6.09 98.66 0 0 31.66-1.22 31.66-8.53l13.4-142.5s15.83-107.18 9.74-118.14l-6.08-17.05c-13-.16-45.48-.57-97.44-1.22z"/><path id="b1ggnTPvyC" d="M231.63 221.86c-13.46 0-24.36 10.9-24.36 24.36 0 13.45 10.9 24.35 24.36 24.35 13.45 0 24.36-10.9 24.36-24.35 0-13.46-10.91-24.36-24.36-24.36z"/><path id="b3ya11ouVw" d="M221.03 233.49c1.88-.31 3.56-1.7 5.45-1.53.9.17 1.78.45 2.6.84.84.4 1.8.43 2.66.1.76-.35 1.09-1.25.73-2.01a1.35 1.35 0 0 0-.15-.26 7.53 7.53 0 0 0 4.33-1.86c.24-.25.51-.46.82-.62.72-.19 1.49-.07 2.12.33.28.13 2.51 1.15 2.79 1.28a3.5 3.5 0 0 1 1.59 1.14c.33.52.4 1.21.87 1.61.6.5 1.49.26 2.27.31 1.47.14 2.6 1.36 2.63 2.84-.01.81-.3 1.82.34 2.32.38.29.91.24 1.35.42 1.14.46 1.14 2.05.98 3.27-.17 1.21-.09 2.82 1.08 3.2.83.26 1.67-.3 2.52-.43 1.3-.19 2.49.62 3.64 1.24s2.68 1.03 3.68.19c.93-.78.87-2.22.61-3.41-.36-1.7-.97-3.35-1.79-4.88-.3-.46-.48-.98-.51-1.52.14-.78.6-1.45 1.27-1.86 1.41-1.12 3.03-2.24 3.49-3.98.34-1.27-.04-2.62-.01-3.94.03-1.6.67-3.2.37-4.77-.54-2.86-3.72-4.24-5.77-6.3-2.82-2.83-3.74-7.36-7.07-9.57-2.66-1.77-6.15-1.56-9.18-2.57-3.33-1.11-6.01-3.66-9.3-4.9-3.63-1.34-7.67-.99-11.01.96-.99.73-2.08 1.29-3.24 1.66-.98.11-1.97.1-2.95-.04-1.94-.1-3.88.3-5.62 1.16-.67.27-1.23.76-1.58 1.38-.59 1.31.27 3.35-1.02 3.98-.6.29-1.31.01-1.98.03-1.3.02-2.3 1.16-2.92 2.3-.48 1.21-1.17 2.32-2.04 3.29-1.59 1.39-4.47 1.62-4.89 3.69-.01.87.04 1.75.15 2.62-.12 1.83-2.08 3.23-1.98 5.06.12 2.12 2.81 3.15 3.53 5.15.54 1.52-.18 3.16-.67 4.69-.5 1.54-.65 3.51.63 4.49.5.39 1.15.55 1.66.92 1.33.96 1.31 2.91 1.16 4.54-.17.69.01 1.41.48 1.94.45.27.98.33 1.48.18 1.6-.39 2.98-1.43 3.8-2.86.43-.71.51-1.33 1.29-1.7.52-.26 1.16-.03 1.7-.36 2.54-1.57 1.67-6.04 4.79-7.37 1.49-.63 3.22-.12 4.82-.39z"/><path id="bEeOiM4u1" d="M226.47 285.79s-15.23-12.78-16.45-17.66c0 0-7.91 7.92-7.91 9.14 0 1.22-34.11 4.87-42.63 14.61-8.53 9.75-15.83 30.45-15.83 30.45l20.7 38.98s1.22 21.92 1.22 24.36c0 0-6.09 41.41-3.66 42.63 0 0 26.8 13.39 47.51 10.96 0 0 41.41-6.09 47.5-6.09 0 0 10.96 2.43 10.96 0 0 0-3.66-7.31-3.66-9.75 0 0-1.21-8.52-1.21-12.18 0 0-2.44-9.74-2.44-14.61l26.79-70.64s-1.21-20.71-20.7-30.45l-21.92-13.4s-.38-7.31-1.41-7.31c0 0-4.68 10.96-14.43 12.18-.48-.24-1.95-.97-2.43-1.22z"/><path id="h1DZJzJQ6r" d="M280.06 315.28c4.38 5.84 6.82 9.09 7.3 9.74 0 0 14.62 70.64 12.18 96.22l-4.87 45.06s4.87 18.27 1.22 18.27c0 0-25.58 1.22-25.58-2.43 0-3.66 2.44-26.8 2.44-26.8-.41-3.57-2.44-21.43-6.09-53.59l-13.4-18.27 26.8-68.2z"/><path id="a4J3BaHy8q" d="M289.8 483.79c-.73 4.38-1.14 6.82-1.22 7.3 0 0 1.83 50.55-11.57 34.72l-4.26-37.15c.24-.41 1.46-2.44 3.65-6.09l13.4 1.22z"/><path id="e6U6GrvkYT" d="M147.3 316.93l-3.65 3.65s-21.93 65.77-14.62 80.39c7.31 14.61 21.92 51.15 26.8 49.93 4.87-1.22 21.92-12.18 21.92-13.4 0-1.21-20.71-35.32-20.71-35.32s-2.43-7.3-1.21-8.52c1.21-1.22 1.21 0 0-2.44-1.22-2.43-1.22 0 1.21-2.43 2.44-2.44 2.44-2.44 2.44-3.66 0-1.22 7.31-31.66 7.31-31.66-2.6-4.88-9.1-17.06-19.49-36.54z"/></defs><use fill="#e4e9e9" xlink:href="#b6pZvV1Wj"/><use fill-opacity="0" stroke="#000" stroke-opacity="0" xlink:href="#b6pZvV1Wj"/><use fill="#dc322f" xlink:href="#cDUpBT92h"/><use fill-opacity="0" stroke="#000" stroke-opacity="0" xlink:href="#cDUpBT92h"/><use fill="#e4e9e9" xlink:href="#dH5VXrVF7"/><use fill-opacity="0" stroke="#000" stroke-opacity="0" xlink:href="#dH5VXrVF7"/><use fill="#dc322f" xlink:href="#cqY5DthNn"/><use fill-opacity="0" stroke="#000" stroke-opacity="0" xlink:href="#cqY5DthNn"/><use fill-opacity="0" xlink:href="#a8etuEIY2v"/><use fill-opacity="0" stroke="#edae49" stroke-width="2" xlink:href="#a8etuEIY2v"/><g><use fill="#001920" xlink:href="#eBpyZrEen"/><use fill-opacity="0" stroke="#000" stroke-opacity="0" xlink:href="#eBpyZrEen"/><use fill="#edae49" xlink:href="#a13SR5bbG2"/><use fill-opacity="0" stroke="#000" stroke-opacity="0" xlink:href="#a13SR5bbG2"/><use fill="#fff" xlink:href="#cimweEpj2"/><use fill-opacity="0" stroke="#000" stroke-opacity="0" xlink:href="#cimweEpj2"/><g><use fill="#006883" xlink:href="#e3KXoRDjE"/><use fill-opacity="0" stroke="#000" stroke-opacity="0" xlink:href="#e3KXoRDjE"/></g><g><use fill="#fff" xlink:href="#c3J5UNjXPL"/><use fill-opacity="0" stroke="#000" stroke-opacity="0" xlink:href="#c3J5UNjXPL"/></g></g><g><use fill-opacity="0" xlink:href="#g4tL5s4QOG"/><use fill-opacity="0" stroke="#ebebeb" stroke-width="1.07" xlink:href="#g4tL5s4QOG"/><use fill-opacity="0" xlink:href="#b3JrRg0bR"/><use fill-opacity="0" stroke="#ebebeb" stroke-width="1.07" xlink:href="#b3JrRg0bR"/><g><use fill-opacity="0" xlink:href="#e5WoonzK6"/><use fill-opacity="0" stroke="#ebebeb" stroke-width="1.07" xlink:href="#e5WoonzK6"/></g><g><use fill-opacity="0" xlink:href="#c1jNSaERF"/><use fill-opacity="0" stroke="#ebebeb" stroke-width="1.07" xlink:href="#c1jNSaERF"/></g></g><g><use fill-opacity="0" xlink:href="#m2IR27yS07"/><use fill-opacity="0" stroke="#ebebeb" stroke-width="1.07" xlink:href="#m2IR27yS07"/><use fill-opacity="0" xlink:href="#d2plIwiYrc"/><use fill-opacity="0" stroke="#ebebeb" stroke-width="1.07" xlink:href="#d2plIwiYrc"/><use fill-opacity="0" xlink:href="#b4IQRnJ34G"/><use fill-opacity="0" stroke="#ebebeb" stroke-width="1.07" xlink:href="#b4IQRnJ34G"/><g><use fill-opacity="0" xlink:href="#a2ZMqcpgKw"/><use fill-opacity="0" stroke="#ebebeb" stroke-width="1.07" xlink:href="#a2ZMqcpgKw"/></g><g><use fill-opacity="0" xlink:href="#c2524QDrId"/><use fill-opacity="0" stroke="#ebebeb" stroke-width="1.07" xlink:href="#c2524QDrId"/></g><g><use fill-opacity="0" xlink:href="#h3egw9M"/><use fill-opacity="0" stroke="#ebebeb" stroke-width="1.07" xlink:href="#h3egw9M"/></g></g><g><use fill="#d1495b" xlink:href="#bwUbVNQSs"/><use fill-opacity="0" stroke="#d1495b" stroke-width=".71" xlink:href="#bwUbVNQSs"/><use fill="#d1495b" xlink:href="#m4FZ20Zvz"/><use fill-opacity="0" stroke="#d1495b" stroke-width=".71" xlink:href="#m4FZ20Zvz"/><use fill="#d1495b" xlink:href="#a4kt9zniI2"/><use fill-opacity="0" stroke="#d1495b" stroke-width=".71" xlink:href="#a4kt9zniI2"/><use fill="#d1495b" xlink:href="#d2kUdZ1ljd"/><use fill-opacity="0" stroke="#d1495b" stroke-width=".71" xlink:href="#d2kUdZ1ljd"/><use fill="#d1495b" xlink:href="#l7z3UUgSl"/><use fill-opacity="0" stroke="#d1495b" stroke-width=".71" xlink:href="#l7z3UUgSl"/><use fill="#d1495b" xlink:href="#a5FGxT5Yqw"/><use fill-opacity="0" stroke="#d1495b" stroke-width=".71" xlink:href="#a5FGxT5Yqw"/><g><use fill="#d1495b" xlink:href="#fxEemaPCl"/><use fill-opacity="0" stroke="#d1495b" stroke-width=".71" xlink:href="#fxEemaPCl"/></g><g><use fill="#d1495b" xlink:href="#a6e5Gebt16"/><use fill-opacity="0" stroke="#d1495b" stroke-width=".71" xlink:href="#a6e5Gebt16"/></g><g><use fill="#d1495b" xlink:href="#c3tSAq2Dw"/><use fill-opacity="0" stroke="#d1495b" stroke-width=".71" xlink:href="#c3tSAq2Dw"/></g><g><use fill="#d1495b" xlink:href="#f2XlrGWVJ"/><use fill-opacity="0" stroke="#d1495b" stroke-width=".71" xlink:href="#f2XlrGWVJ"/></g><g><use fill="#d1495b" xlink:href="#c2DVz2ul4I"/><use fill-opacity="0" stroke="#d1495b" stroke-width=".71" xlink:href="#c2DVz2ul4I"/></g></g><g><use fill="#edae49" xlink:href="#a31J7aeVtZ"/><use fill-opacity="0" stroke="#edae49" stroke-width=".71" xlink:href="#a31J7aeVtZ"/><use fill="#edae49" xlink:href="#a7xePfH0y"/><use fill-opacity="0" stroke="#edae49" stroke-width=".71" xlink:href="#a7xePfH0y"/><use fill="#edae49" xlink:href="#bExSb2OdH"/><use fill-opacity="0" stroke="#edae49" stroke-width=".71" xlink:href="#bExSb2OdH"/><use fill="#edae49" xlink:href="#e35Lo0DWe8"/><use fill-opacity="0" stroke="#edae49" stroke-width=".71" xlink:href="#e35Lo0DWe8"/><use fill="#edae49" xlink:href="#a1ks7dDGPZ"/><use fill-opacity="0" stroke="#edae49" stroke-width=".71" xlink:href="#a1ks7dDGPZ"/><use fill="#edae49" xlink:href="#b3MeGOUKS2"/><use fill-opacity="0" stroke="#edae49" stroke-width=".71" xlink:href="#b3MeGOUKS2"/><g><use fill="#edae49" xlink:href="#d1yoGeXfhg"/><use fill-opacity="0" stroke="#edae49" stroke-width=".71" xlink:href="#d1yoGeXfhg"/></g><g><use fill="#edae49" xlink:href="#hrRZIuScv"/><use fill-opacity="0" stroke="#edae49" stroke-width=".71" xlink:href="#hrRZIuScv"/></g><g><use fill="#edae49" xlink:href="#c5D4FH1Joe"/><use fill-opacity="0" stroke="#edae49" stroke-width=".71" xlink:href="#c5D4FH1Joe"/></g><g><use fill="#edae49" xlink:href="#e3cqrogF3N"/><use fill-opacity="0" stroke="#edae49" stroke-width=".71" xlink:href="#e3cqrogF3N"/></g><g><use fill="#edae49" xlink:href="#cq2iv34vu"/><use fill-opacity="0" stroke="#edae49" stroke-width=".71" xlink:href="#cq2iv34vu"/></g><g><use fill="#edae49" xlink:href="#bgmrCx9ov"/><use fill-opacity="0" stroke="#edae49" stroke-width=".71" xlink:href="#bgmrCx9ov"/></g></g><g><use fill="#00798c" xlink:href="#d1faOD1GQy"/><use fill-opacity="0" stroke="#00798c" stroke-width=".71" xlink:href="#d1faOD1GQy"/><use fill="#00798c" xlink:href="#hhoWPG4g4"/><use fill-opacity="0" stroke="#00798c" stroke-width=".71" xlink:href="#hhoWPG4g4"/><use fill="#00798c" xlink:href="#a2d4VIiso"/><use fill-opacity="0" stroke="#00798c" stroke-width=".71" xlink:href="#a2d4VIiso"/><g><use fill="#00798c" xlink:href="#bkaSNe04k"/><use fill-opacity="0" stroke="#00798c" stroke-width=".71" xlink:href="#bkaSNe04k"/></g><g><use fill="#00798c" xlink:href="#ggwxWlTYN"/><use fill-opacity="0" stroke="#00798c" stroke-width=".71" xlink:href="#ggwxWlTYN"/></g></g><g><use id="a7jFif1Ru" fill="#4d4d4d" xlink:href="#a9tepWJHO"/><use id="b3ICOsfi1L" fill="#4d4d4d" xlink:href="#aRAfxLaqf"/><use id="d9pLOMaeJ" fill="#4d4d4d" xlink:href="#b2xlizht4o"/><use id="b9svcdxaC" fill="#4d4d4d" xlink:href="#b3SoEK3bUe"/><use id="dsJODkZAj" fill="#4d4d4d" xlink:href="#b3jn0z6Zk"/><use id="auKGb8Zjr" fill="#4d4d4d" xlink:href="#f3xASkci"/><use id="a1LU1SBt2T" fill="#4d4d4d" xlink:href="#a3AY2dVM8X"/><use id="fKtfjtxF2" fill="#4d4d4d" xlink:href="#a6zijJBvPG"/><use id="afPJsKc4s" fill="#4d4d4d" xlink:href="#j2EByK6vRk"/><use id="d28VvlaO7" fill="#4d4d4d" xlink:href="#b3NF90Xbno"/><use id="a1bQSM4YSy" xlink:href="#c9DlIqanc"/><use id="eSYMAwR74" xlink:href="#c25RyAErrx"/></g><g><use fill="#f9d8cc" xlink:href="#aLTgajWgV"/><use fill-opacity="0" stroke="#000" stroke-opacity="0" xlink:href="#aLTgajWgV"/><use fill="#fbbebe" xlink:href="#aC7kvQLhb"/><use fill-opacity="0" stroke="#000" stroke-opacity="0" xlink:href="#aC7kvQLhb"/><use fill="#e4e9e9" xlink:href="#a5lqgeJNws"/><use fill-opacity="0" stroke="#000" stroke-opacity="0" xlink:href="#a5lqgeJNws"/><use fill="#001e25" xlink:href="#d2jMCPUI22"/><use fill-opacity="0" stroke="#000" stroke-opacity="0" xlink:href="#d2jMCPUI22"/><use fill="#001e25" xlink:href="#b7LnxzsGie"/><use fill-opacity="0" stroke="#000" stroke-opacity="0" xlink:href="#b7LnxzsGie"/><use fill="#001e25" xlink:href="#f5xX0EeG"/><use fill-opacity="0" stroke="#000" stroke-opacity="0" xlink:href="#f5xX0EeG"/><use fill="#001e25" xlink:href="#fFdFvqe2S"/><use fill-opacity="0" stroke="#000" stroke-opacity="0" xlink:href="#fFdFvqe2S"/><g><use fill="#001e25" xlink:href="#a1FT41jc6F"/><use fill-opacity="0" stroke="#000" stroke-opacity="0" xlink:href="#a1FT41jc6F"/></g><g><use fill="#ffdfd3" xlink:href="#b1ggnTPvyC"/><use fill-opacity="0" stroke="#000" stroke-opacity="0" xlink:href="#b1ggnTPvyC"/></g><g><use fill="#c27e5b" xlink:href="#b3ya11ouVw"/><use fill-opacity="0" stroke="#000" stroke-opacity="0" xlink:href="#b3ya11ouVw"/></g><g><use fill="#cbcecf" xlink:href="#bEeOiM4u1"/><use fill-opacity="0" stroke="#000" stroke-opacity="0" xlink:href="#bEeOiM4u1"/></g><g><use fill="#cbcecf" xlink:href="#h1DZJzJQ6r"/><use fill-opacity="0" stroke="#000" stroke-opacity="0" xlink:href="#h1DZJzJQ6r"/></g><g><use fill="#ffdfd3" xlink:href="#a4J3BaHy8q"/><use fill-opacity="0" stroke="#000" stroke-opacity="0" xlink:href="#a4J3BaHy8q"/></g><g><use fill="#cbcecf" xlink:href="#e6U6GrvkYT"/><use fill-opacity="0" stroke="#000" stroke-opacity="0" xlink:href="#e6U6GrvkYT"/></g></g></svg>