<svg xmlns="http://www.w3.org/2000/svg" xmlns:xlink="http://www.w3.org/1999/xlink" xmlns:lucid="lucid" width="1760" height="1360"><g transform="translate(0 0)" lucid:page-tab-id="0_0"><path d="M0 0h1760v1360H0z" fill="#fff"/><path d="M102 282.74h144v102.44c-24.05-17.1-39.02-17.1-48.1-17.1-14.4 0-33.55 17.1-47.95 17.1-8.93 0-24.05 0-47.95-17.1z" stroke="#000" stroke-width="2" fill="#fff"/><path d="M110 291.78h144v102.44c-24.05-17.1-39.02-17.1-48.1-17.1-14.4 0-33.55 17.1-47.95 17.1-8.93 0-24.05 0-47.95-17.1z" stroke="#000" stroke-width="2" fill="#fff"/><path d="M118 300.82h144v102.44c-24.05-17.1-39.02-17.1-48.1-17.1-14.4 0-33.55 17.1-47.95 17.1-8.93 0-24.05 0-47.95-17.1z" stroke="#000" stroke-width="2" fill="#fff"/><use xlink:href="#a" transform="matrix(1,0,0,1,118,300.81985294117646) translate(62.67220052083333 23.007595486111114)"/><use xlink:href="#b" transform="matrix(1,0,0,1,118,300.81985294117646) translate(12.721028645833314 51.46245659722223)"/><use xlink:href="#c" transform="matrix(1,0,0,1,118,300.81985294117646) translate(11.055989583333329 79.91731770833334)"/><path d="M102 506.74h144v102.44c-24.05-17.1-39.02-17.1-48.1-17.1-14.4 0-33.55 17.1-47.95 17.1-8.93 0-24.05 0-47.95-17.1z" stroke="#000" stroke-width="2" fill="#fff"/><path d="M110 515.78h144v102.44c-24.05-17.1-39.02-17.1-48.1-17.1-14.4 0-33.55 17.1-47.95 17.1-8.93 0-24.05 0-47.95-17.1z" stroke="#000" stroke-width="2" fill="#fff"/><path d="M118 524.82h144v102.44c-24.05-17.1-39.02-17.1-48.1-17.1-14.4 0-33.55 17.1-47.95 17.1-8.93 0-24.05 0-47.95-17.1z" stroke="#000" stroke-width="2" fill="#fff"/><use xlink:href="#a" transform="matrix(1,0,0,1,118,524.8198529411765) translate(62.67220052083333 23.007595486111114)"/><use xlink:href="#b" transform="matrix(1,0,0,1,118,524.8198529411765) translate(12.721028645833314 51.46245659722223)"/><use xlink:href="#c" transform="matrix(1,0,0,1,118,524.8198529411765) translate(11.055989583333329 79.91731770833334)"/><path d="M102 956.74h144v102.44c-24.05-17.1-39.02-17.1-48.1-17.1-14.4 0-33.55 17.1-47.95 17.1-8.93 0-24.05 0-47.95-17.1z" stroke="#000" stroke-width="2" fill="#fff"/><path d="M110 965.78h144v102.44c-24.05-17.1-39.02-17.1-48.1-17.1-14.4 0-33.55 17.1-47.95 17.1-8.93 0-24.05 0-47.95-17.1z" stroke="#000" stroke-width="2" fill="#fff"/><path d="M118 974.82h144v102.44c-24.05-17.1-39.02-17.1-48.1-17.1-14.4 0-33.55 17.1-47.95 17.1-8.93 0-24.05 0-47.95-17.1z" stroke="#000" stroke-width="2" fill="#fff"/><use xlink:href="#a" transform="matrix(1,0,0,1,118,974.8198529411765) translate(62.67220052083333 23.007595486111114)"/><use xlink:href="#b" transform="matrix(1,0,0,1,118,974.8198529411765) translate(12.721028645833314 51.46245659722223)"/><use xlink:href="#c" transform="matrix(1,0,0,1,118,974.8198529411765) translate(11.055989583333329 79.91731770833334)"/><path d="M261 672v240H157.87V672z" stroke="#000" stroke-opacity="0" stroke-width="2" fill="#fff" fill-opacity="0"/><use xlink:href="#d" transform="matrix(6.123233995736766e-17,1,-1,6.123233995736766e-17,256,677) translate(80.6640625 75.1328125)"/><path d="M682 283h160v120H682z" stroke="#000" stroke-width="2" fill="#fff"/><path d="M698 283v120m128-120v120" stroke="#000" stroke-width="2" fill="none"/><use xlink:href="#e" transform="matrix(1,0,0,1,702,283) translate(15.449761284722221 40.007595486111114)"/><use xlink:href="#f" transform="matrix(1,0,0,1,702,283) translate(21.29231770833333 68.46245659722223)"/><use xlink:href="#g" transform="matrix(1,0,0,1,702,283) translate(51.38237847222222 96.91731770833334)"/><path d="M682 507h160v120H682z" stroke="#000" stroke-width="2" fill="#fff"/><path d="M698 507v120m128-120v120" stroke="#000" stroke-width="2" fill="none"/><use xlink:href="#e" transform="matrix(1,0,0,1,702,507) translate(15.449761284722221 40.007595486111114)"/><use xlink:href="#f" transform="matrix(1,0,0,1,702,507) translate(21.29231770833333 68.46245659722223)"/><use xlink:href="#h" transform="matrix(1,0,0,1,702,507) translate(52.009006076388886 96.91731770833334)"/><path d="M682 957h160v120H682z" stroke="#000" stroke-width="2" fill="#fff"/><path d="M698 957v120m128-120v120" stroke="#000" stroke-width="2" fill="none"/><use xlink:href="#e" transform="matrix(1,0,0,1,702,957) translate(15.449761284722221 40.007595486111114)"/><use xlink:href="#f" transform="matrix(1,0,0,1,702,957) translate(21.29231770833333 68.46245659722223)"/><use xlink:href="#i" transform="matrix(1,0,0,1,702,957) translate(51.27495659722222 96.91731770833334)"/><path d="M424 283h96l32 60-32 60h-96l-32-60z" stroke="#000" stroke-width="2" fill="#fff"/><use xlink:href="#j" transform="matrix(1,0,0,1,392,283) translate(45.86371527777778 54.235026041666664)"/><use xlink:href="#k" transform="matrix(1,0,0,1,392,283) translate(32.48969184027778 82.68988715277777)"/><path d="M424 507h96l32 60-32 60h-96l-32-60z" stroke="#000" stroke-width="2" fill="#fff"/><use xlink:href="#j" transform="matrix(1,0,0,1,392,507) translate(45.86371527777778 54.235026041666664)"/><use xlink:href="#k" transform="matrix(1,0,0,1,392,507) translate(32.48969184027778 82.68988715277777)"/><path d="M424 957h96l32 60-32 60h-96l-32-60z" stroke="#000" stroke-width="2" fill="#fff"/><use xlink:href="#j" transform="matrix(1,0,0,1,392,957) translate(45.86371527777778 54.235026041666664)"/><use xlink:href="#k" transform="matrix(1,0,0,1,392,957) translate(32.48969184027778 82.68988715277777)"/><path d="M262 343h128.87" stroke="#000" stroke-width="2" fill="none"/><path/><path d="M390.87 343l-14.27 4.64v-9.28z"/><path d="M392.3 342.42l-.3.58.3.58-16.7 5.43v-12zm-14.7 3.84l10.03-3.26-10.03-3.26z"/><path d="M552 343h129" stroke="#000" stroke-width="2" fill="none"/><path d="M552 344h-.53l.53-1-.53-1h.53zM681 343l-14.27 4.64v-9.28z"/><path d="M682 342.27v1.46L665.73 349v-12zm-14.27 4l10.03-3.27-10.03-3.26z"/><path d="M262 567h128.87" stroke="#000" stroke-width="2" fill="none"/><path/><path d="M390.87 567l-14.27 4.64v-9.28z"/><path d="M392.3 566.42l-.3.58.3.58-16.7 5.43v-12zm-14.7 3.84l10.03-3.26-10.03-3.26z"/><path d="M552 567h129" stroke="#000" stroke-width="2" fill="none"/><path d="M552 568h-.53l.53-1-.53-1h.53zM681 567l-14.27 4.64v-9.28z"/><path d="M682 566.27v1.46L665.73 573v-12zm-14.27 4l10.03-3.27-10.03-3.26z"/><path d="M262 1017h128.87" stroke="#000" stroke-width="2" fill="none"/><path/><path d="M390.87 1017l-14.27 4.64v-9.28z"/><path d="M392.3 1016.42l-.3.58.3.58-16.7 5.43v-12zm-14.7 3.84l10.03-3.26-10.03-3.26z"/><path d="M552 1017h129" stroke="#000" stroke-width="2" fill="none"/><path d="M552 1018h-.53l.53-1-.53-1h.53zM681 1017l-14.27 4.64v-9.28z"/><path d="M682 1016.27v1.46l-16.27 5.28v-12zm-14.27 4l10.03-3.27-10.03-3.26z"/><path d="M552 672v240H448.87V672z" stroke="#000" stroke-opacity="0" stroke-width="2" fill="#fff" fill-opacity="0"/><use xlink:href="#d" transform="matrix(6.123233995736766e-17,1,-1,6.123233995736766e-17,547,677) translate(80.6640625 75.1328125)"/><path d="M842 672v240H738.87V672z" stroke="#000" stroke-opacity="0" stroke-width="2" fill="#fff" fill-opacity="0"/><use xlink:href="#d" transform="matrix(6.123233995736766e-17,1,-1,6.123233995736766e-17,837,677) translate(80.6640625 75.1328125)"/><path d="M1322 620h96l32 60-32 60h-96l-32-60z" stroke="#000" stroke-width="2" fill="#fff"/><use xlink:href="#j" transform="matrix(1,0,0,1,1290,620) translate(45.86371527777778 54.235026041666664)"/><use xlink:href="#k" transform="matrix(1,0,0,1,1290,620) translate(32.48969184027778 82.68988715277777)"/><path d="M1546 620h160v120c-26.72-20.04-43.36-20.04-53.44-20.04-16 0-37.28 20.04-53.28 20.04-9.92 0-26.72 0-53.28-20.04z" stroke="#000" stroke-width="2" fill="#fff"/><use xlink:href="#l" transform="matrix(1,0,0,1,1546,620) translate(20.721028645833314 44.235026041666664)"/><use xlink:href="#m" transform="matrix(1,0,0,1,1546,620) translate(24.570312499999993 72.68988715277777)"/><path d="M1546 680h-94.87" stroke="#000" stroke-width="2" fill="none"/><path/><path d="M1465.4 684.64l-14.27-4.64 14.27-4.64z"/><path d="M1466.4 686l-16.7-5.42.3-.58-.3-.58 16.7-5.43zm-12.03-6l10.03 3.26v-6.52z"/><path d="M1034 620h160v120h-160z" stroke="#000" stroke-width="2" fill="#fff"/><path d="M1050 620v120m128-120v120" stroke="#000" stroke-width="2" fill="none"/><use xlink:href="#e" transform="matrix(1,0,0,1,1054,620) translate(15.449761284722221 25.780164930555557)"/><use xlink:href="#f" transform="matrix(1,0,0,1,1054,620) translate(21.29231770833333 54.23502604166667)"/><use xlink:href="#n" transform="matrix(1,0,0,1,1054,620) translate(60 82.68988715277779)"/><use xlink:href="#o" transform="matrix(1,0,0,1,1054,620) translate(30.71560329861111 111.14474826388889)"/><use xlink:href="#p" transform="matrix(1,0,0,1,1054,620) translate(81.84841579861111 111.14474826388889)"/><path d="M1290 680h-95" stroke="#000" stroke-width="2" fill="none"/><path d="M1290 680l.53 1h-.53v-2h.53zM1209.27 684.64L1195 680l14.27-4.64z"/><path d="M1210.27 686l-16.27-5.27v-1.46l16.27-5.28zm-12.03-6l10.03 3.26v-6.52z"/><path d="M1034 680L842 343" stroke="#000" stroke-width="2" fill="none"/><path d="M1034 682.02l-.87-1.52.87-.5zM853.1 353.1l-8.07 4.6L842 343z"/><path d="M854.78 353.3l-10.45 5.94-2.33-11.3v-6.3zm-9.04 2.84l5.66-3.23-7.8-7.1z"/><path d="M1034 680L842 567" stroke="#000" stroke-width="7" fill="none"/><path d="M1034 684.06l-1.78-1.04L1034 680zM856.65 570.24l-4.7 8L842 567z"/><path d="M862.1 567.86l-9.58 16.3L842 572.28v-8.86z"/><path d="M1034 680l-192 337" stroke="#000" stroke-width="4" fill="none"/><path d="M1034 676.55V680l-1.74-1 1.5-2.6zM853.1 1006.9L842 1017l3.03-14.7z"/><path d="M856.47 1006.52l-14.47 13.2v-12.6l1.63-7.9zm-11.27 4.86l4.5-4.1-3.26-1.87z"/><path d="M1034 680L842 792" stroke="#333" fill="none"/><path d="M1034 680l-.25-.43.25-.15zM856.66 788.82L842 792l10-11.2z" fill="#333"/><path d="M857.44 789.16L842 792.5v-1.25l10.07-11.3zm-14.04 2.02l12.48-2.7-3.98-6.83z" fill="#333"/><defs><path d="M1505-1376c-122-7-194 27-194 147V0h-146L397-1180v947c-3 120 73 154 195 147V0H78v-86c122 7 194-27 194-147v-1004c3-115-76-146-194-139v-86h375l733 1132v-907c3-116-76-146-195-139v-86h514v86" id="q"/><use transform="matrix(0.01193576388888889,0,0,0.01193576388888889,0,0)" xlink:href="#q" id="a"/><path d="M705-1462c450 9 667 274 667 729S1160 0 705 0H78v-86c122 7 194-27 194-147v-1004c3-115-76-146-194-139v-86h627zm440 729c2-374-134-623-486-627H479v1256h178c362-7 486-260 488-629" id="r"/><path d="M467-106c176 0 267-107 272-285v-166c-189 6-378 9-423 154-10 31-15 66-15 106 0 123 47 191 166 191zm272-535c5-199 13-375-190-375-142 0-190 83-187 223-106-2-174-27-174-129 0-169 191-191 369-196 250-7 375 104 375 354v531c-3 100 32 153 133 147V0H788l-32-176h-17C664-76 596 23 420 20 213 16 102-97 102-307c0-109 41-186 116-242 100-75 325-89 521-92" id="s"/><path d="M868-871c27-98-34-147-137-141v-86h426v86c-114-4-130 76-162 160C865-510 751-153 616 182c-65 163-156 280-360 302-50 6-113 8-178 8v-97c285-2 394-182 461-403L160-903c-28-65-56-114-152-109v-86h492v86c-114-14-152 77-113 174 88 217 187 419 248 662h6c62-238 163-461 227-695" id="t"/><path d="M51-481v-154h533v154H51" id="u"/><path d="M272-1229c4-120-72-154-194-147v-86h1032l10 358h-106c-7-141-39-256-191-256H479v545h494v100H479v613h395c120 0 178-65 195-168l14-88h107L1176 0H78v-86c117 6 194-21 194-137v-1006" id="v"/><path d="M886-871c30-101-37-149-145-141v-86h439v86c-127-12-147 70-181 160L676 0H489L160-903c-24-68-57-114-152-109v-86h512v86c-124-19-174 64-133 174 84 228 172 444 229 695h7c82-248 190-477 263-728" id="w"/><path d="M786-645c-4-191-36-363-223-363-76 0-134 30-175 92s-66 152-73 271h471zm123 393c43 21 51 90 17 136C862-29 744 20 588 20c-331 0-471-225-475-561-4-348 134-577 454-577 327 0 443 231 426 583H311c7 242 67 426 305 426 140 0 234-60 293-143" id="x"/><path d="M434-223c-3 108 66 141 174 137V0H57v-86c118 6 185-31 185-147v-639c2-108-66-143-174-140v-86h331l27 166h10c63-113 148-188 320-186 244 3 343 152 344 401v484c-4 110 54 152 164 147V0H907v-707c0-170-55-282-225-280-187 3-248 145-248 332v432" id="y"/><path d="M387-291c-2 124 47 200 156 203 51 1 88-6 131-14v90C626 8 560 18 492 20 278 25 195-83 195-297v-684H39v-82c170-8 224-133 254-287h94v252h268v117H387v690" id="z"/><g id="b"><use transform="matrix(0.01193576388888889,0,0,0.01193576388888889,0,0)" xlink:href="#r"/><use transform="matrix(0.01193576388888889,0,0,0.01193576388888889,17.772352430555557,0)" xlink:href="#s"/><use transform="matrix(0.01193576388888889,0,0,0.01193576388888889,30.806206597222225,0)" xlink:href="#t"/><use transform="matrix(0.01193576388888889,0,0,0.01193576388888889,44.61588541666667,0)" xlink:href="#u"/><use transform="matrix(0.01193576388888889,0,0,0.01193576388888889,52.195095486111114,0)" xlink:href="#v"/><use transform="matrix(0.01193576388888889,0,0,0.01193576388888889,67.42513020833334,0)" xlink:href="#w"/><use transform="matrix(0.01193576388888889,0,0,0.01193576388888889,81.3422309027778,0)" xlink:href="#x"/><use transform="matrix(0.01193576388888889,0,0,0.01193576388888889,94.42382812500003,0)" xlink:href="#y"/><use transform="matrix(0.01193576388888889,0,0,0.01193576388888889,109.95225694444447,0)" xlink:href="#z"/></g><path d="M1010-391c0 288-209 411-504 411-227 0-400-72-408-288-3-85 58-140 148-138 13 184 83 323 276 326 176 3 296-86 293-258-4-208-164-249-317-319-197-90-377-181-377-455 0-256 189-371 448-371 165 0 292 46 357 143 39 57 33 148-18 186-30 22-68 34-117 34-4-156-72-260-230-260-155 0-250 80-250 233 0 217 160 262 318 332 152 68 291 135 355 283 17 42 26 88 26 141" id="A"/><path d="M1036 266c-2 112 71 145 185 140v86H608v-86c140 9 239-11 236-148-4-151 0-299 8-442h-8C786-68 701 20 530 20c-321 0-417-237-417-567 0-331 95-571 417-571 163 0 254 76 314 180h12l37-160h328v86c-118-6-185 32-185 148V266zM563-987c-219 0-252 212-252 442 0 145 20 254 59 326s104 108 195 108c242 2 279-192 279-436s-41-440-281-440" id="B"/><path d="M887-864c2-112-62-153-174-148v-86h366v875c-3 108 66 141 174 137V0H928l-27-166h-10C829-49 733 21 559 20c-245-1-338-153-338-401v-491c2-108-66-143-174-140v-86h367v707c-1 168 46 283 215 280 191-4 258-139 258-331v-422" id="C"/><path d="M893-256c39 28 47 103 13 150C845-22 730 20 580 20c-332 0-467-220-467-563 0-349 119-575 456-575 140 0 259 39 325 116 44 51 42 161-14 193-31 18-76 29-137 29-1-134-38-239-174-236-232 6-258 224-258 471 0 264 65 427 310 432 127 2 227-62 272-143" id="D"/><path d="M834-301C834-70 665 20 430 20 250 20 92-26 92-197c0-88 47-135 129-141 1 157 63 257 221 260 156 3 257-97 214-252-47-85-142-109-240-157-153-75-310-122-310-340 0-212 169-289 386-289 130 0 232 36 280 116 31 53 24 126-20 162-26 22-62 33-109 33 0-130-49-217-176-217-120 1-195 48-195 164 0 149 143 163 254 217 154 74 308 124 308 340" id="E"/><g id="c"><use transform="matrix(0.01193576388888889,0,0,0.01193576388888889,0,0)" xlink:href="#A"/><use transform="matrix(0.01193576388888889,0,0,0.01193576388888889,13.296440972222223,0)" xlink:href="#x"/><use transform="matrix(0.01193576388888889,0,0,0.01193576388888889,26.378038194444446,0)" xlink:href="#B"/><use transform="matrix(0.01193576388888889,0,0,0.01193576388888889,41.38129340277778,0)" xlink:href="#C"/><use transform="matrix(0.01193576388888889,0,0,0.01193576388888889,56.897786458333336,0)" xlink:href="#x"/><use transform="matrix(0.01193576388888889,0,0,0.01193576388888889,69.97938368055556,0)" xlink:href="#y"/><use transform="matrix(0.01193576388888889,0,0,0.01193576388888889,85.74652777777779,0)" xlink:href="#D"/><use transform="matrix(0.01193576388888889,0,0,0.01193576388888889,97.77777777777779,0)" xlink:href="#x"/><use transform="matrix(0.01193576388888889,0,0,0.01193576388888889,110.85937500000001,0)" xlink:href="#E"/></g><path fill="#666" d="M293 14c-88 0-129-49-129-139 0-91 41-139 129-139 87 0 129 49 129 139-1 89-42 139-129 139" id="F"/><g id="d"><use transform="matrix(0.0390625,0,0,0.0390625,0,0)" xlink:href="#F"/><use transform="matrix(0.0390625,0,0,0.0390625,22.890625,0)" xlink:href="#F"/><use transform="matrix(0.0390625,0,0,0.0390625,45.78125,0)" xlink:href="#F"/></g><path d="M322-226C292-111 376-75 500-86V0H0v-86c136 16 160-66 195-160l454-1216h160l463 1267c24 75 65 118 172 109V0H881v-86c113 10 195-27 165-133-27-93-63-180-94-270H414c-30 88-68 171-92 263zm593-366c-76-225-168-445-229-682-56 246-156 455-233 682h462" id="G"/><path d="M434-233c-3 120 73 154 195 147V0H47v-86c118 6 195-21 195-137v-649c2-108-66-143-174-140v-86h366v865zM330-1303c-79 0-117-45-117-127s37-126 117-126c79 0 116 46 116 126 0 81-37 127-116 127" id="H"/><g id="e"><use transform="matrix(0.01193576388888889,0,0,0.01193576388888889,0,0)" xlink:href="#G"/><use transform="matrix(0.01193576388888889,0,0,0.01193576388888889,16.745876736111114,0)" xlink:href="#D"/><use transform="matrix(0.01193576388888889,0,0,0.01193576388888889,28.777126736111114,0)" xlink:href="#z"/><use transform="matrix(0.01193576388888889,0,0,0.01193576388888889,37.3828125,0)" xlink:href="#H"/><use transform="matrix(0.01193576388888889,0,0,0.01193576388888889,44.71137152777778,0)" xlink:href="#w"/><use transform="matrix(0.01193576388888889,0,0,0.01193576388888889,58.86718750000001,0)" xlink:href="#H"/><use transform="matrix(0.01193576388888889,0,0,0.01193576388888889,66.68511284722223,0)" xlink:href="#z"/><use transform="matrix(0.01193576388888889,0,0,0.01193576388888889,75.29079861111111,0)" xlink:href="#t"/></g><path d="M479-223C473-90 582-80 715-86V0H78v-86c122 7 194-27 194-147v-1004c3-115-76-146-194-139v-86h575c309 2 504 125 504 428 0 321-213 462-549 465H479v346zm457-803c0-225-92-342-318-338H479v698h109c246 7 348-114 348-360" id="I"/><path d="M434-223C430-95 529-79 659-86V0H68v-86c112 4 174-35 174-147v-639c2-108-66-143-174-140v-86h315l39 203h10c50-120 106-223 281-223 151 0 257 68 211 208-21 64-90 87-181 87-2-101-16-160-108-160-128 0-157 140-183 255-33 148-12 333-18 505" id="J"/><path d="M594-1118c338 0 472 222 475 567 2 360-143 571-481 571S115-205 113-551c-2-359 142-567 481-567zm-4 108c-241 0-279 212-279 459 0 249 39 465 281 465s278-216 278-465c0-248-38-459-280-459" id="K"/><path d="M442-233C435-92 546-78 688-86V0H55v-86c123 7 195-27 195-147v-768H63v-97h187v-102c4-240 124-377 362-377 124 0 225 14 272 85 33 50 8 123-32 144-31 17-72 29-121 29-2-96-37-164-135-164-176 0-152 207-154 385h289v97H442v768" id="L"/><path d="M414-233c-4 120 72 154 194 147V0H27v-86c122 7 194-28 194-147v-1098c3-115-76-146-194-139v-86h387v1323" id="M"/><g id="f"><use transform="matrix(0.01193576388888889,0,0,0.01193576388888889,0,0)" xlink:href="#I"/><use transform="matrix(0.01193576388888889,0,0,0.01193576388888889,14.764539930555557,0)" xlink:href="#J"/><use transform="matrix(0.01193576388888889,0,0,0.01193576388888889,26.043836805555557,0)" xlink:href="#K"/><use transform="matrix(0.01193576388888889,0,0,0.01193576388888889,39.91319444444444,0)" xlink:href="#L"/><use transform="matrix(0.01193576388888889,0,0,0.01193576388888889,48.936631944444436,0)" xlink:href="#H"/><use transform="matrix(0.01193576388888889,0,0,0.01193576388888889,56.75455729166666,0)" xlink:href="#M"/><use transform="matrix(0.01193576388888889,0,0,0.01193576388888889,64.33376736111111,0)" xlink:href="#x"/></g><path d="M408-489L285-274c-55 91-69 189 75 188h48L391 0h-506l17-86c150 1 160-42 229-160l713-1216h160l194 1267c13 91 44 112 148 109l-17 86H772l16-86c110 7 200-19 195-104-6-110-25-197-37-299H408zm524-103c-25-190-79-508-84-682-83 191-268 485-379 682h463" id="N"/><use transform="matrix(0.01193576388888889,0,0,0.01193576388888889,0,0)" xlink:href="#N" id="g"/><path d="M1190-467C1190-141 951 0 600 0H-43l16-86c129 6 206-41 228-147l213-1004c35-108-30-142-166-139l18-86h531c319 0 479 102 479 307 0 202-111 329-334 381l-2 8c167 33 250 133 250 299zM530-817h158c243 0 365-104 365-311 0-155-94-232-283-232H647zM379-102h199c261 0 391-126 391-379 0-156-96-234-287-234H510" id="O"/><use transform="matrix(0.01193576388888889,0,0,0.01193576388888889,0,0)" xlink:href="#O" id="h"/><path d="M1202-1100c1-171-90-275-258-274-169 0-314 88-434 262S330-733 330-496c0 267 132 400 395 400 77 0 154-10 231-29 24-127 60-250 76-383 7-59-66-86-166-82l19-86h545l-19 86c-120-2-161 48-182 148l-78 368c-145 63-299 94-463 94-362 0-582-194-582-548 0-516 374-955 881-955 136 0 242 21 318 62s114 94 114 159c0 108-103 164-217 162" id="P"/><use transform="matrix(0.01193576388888889,0,0,0.01193576388888889,0,0)" xlink:href="#P" id="i"/><path d="M1141-289c47 27 51 110 13 159C1076-28 927 20 739 20c-439 0-622-310-622-753 0-346 130-585 372-695 199-90 579-71 673 84 39 64 27 161-25 196-32 21-74 38-127 38-5-158-78-264-240-264-349 0-426 285-426 641 0 266 62 478 232 573 54 30 119 45 194 45 183 1 293-72 371-174" id="Q"/><g id="j"><use transform="matrix(0.01193576388888889,0,0,0.01193576388888889,0,0)" xlink:href="#Q"/><use transform="matrix(0.01193576388888889,0,0,0.01193576388888889,14.51388888888889,0)" xlink:href="#K"/><use transform="matrix(0.01193576388888889,0,0,0.01193576388888889,28.621961805555557,0)" xlink:href="#C"/><use transform="matrix(0.01193576388888889,0,0,0.01193576388888889,44.138454861111114,0)" xlink:href="#y"/><use transform="matrix(0.01193576388888889,0,0,0.01193576388888889,59.66688368055556,0)" xlink:href="#z"/></g><path d="M942 20c-116 1-186-85-186-204 0-186 116-490 116-680 0-81-31-121-94-121-76 0-154 51-234 154S412-626 391-524L281 0H90l172-823c35-124 4-196-147-189l18-86h379l-55 258h20c111-184 235-276 373-276 146 0 219 76 219 227 0 192-117 473-117 682 0 139 122 106 203 51l37 60c-89 77-173 116-250 116" id="R"/><path d="M956-1161c125-12 164 158 62 205-14 6-30 8-49 8 9-84-106-83-156-45 48 62 81 134 80 248-2 265-188 381-475 346-48 26-98 54-99 125-1 68 58 77 127 77h232c215 1 338 97 338 306 0 294-237 379-543 383-249 3-426-81-426-299C47 28 162-41 303-70c-62-29-113-79-113-168 0-105 57-142 134-192-112-50-185-152-185-309 0-249 134-379 385-379 97 0 179 25 234 67 49-50 103-100 198-110zM438-14c-139-3-225 52-225 194 0 158 102 212 264 211 212-1 363-46 371-248C856-58 624-10 438-14zm78-1004c-150 0-184 109-184 273 0 159 39 250 186 253 149 3 184-105 182-256-2-165-33-270-184-270" id="S"/><path d="M434-223c-3 108 66 141 174 137V0H57v-86c121 8 185-28 185-147v-639c3-106-58-144-164-140v-86h321l27 166h10c60-112 141-188 309-186 158 2 252 69 297 186h17c61-114 150-188 321-186 240 3 333 155 334 401v484c-3 110 54 152 164 147V0h-356v-707c0-166-49-282-215-280-172 2-228 132-228 305v449c-3 110 54 152 164 147V0H887v-707c0-166-49-282-215-280-182 3-238 148-238 332v432" id="T"/><g id="k"><use transform="matrix(0.01193576388888889,0,0,0.01193576388888889,0,0)" xlink:href="#R"/><use transform="matrix(0.01193576388888889,0,0,0.01193576388888889,14.645182291666668,0)" xlink:href="#u"/><use transform="matrix(0.01193576388888889,0,0,0.01193576388888889,22.463107638888893,0)" xlink:href="#S"/><use transform="matrix(0.01193576388888889,0,0,0.01193576388888889,35.61631944444445,0)" xlink:href="#J"/><use transform="matrix(0.01193576388888889,0,0,0.01193576388888889,47.13433159722223,0)" xlink:href="#s"/><use transform="matrix(0.01193576388888889,0,0,0.01193576388888889,60.896267361111114,0)" xlink:href="#T"/><use transform="matrix(0.01193576388888889,0,0,0.01193576388888889,83.99197048611111,0)" xlink:href="#E"/></g><g id="l"><use transform="matrix(0.01193576388888889,0,0,0.01193576388888889,0,0)" xlink:href="#r"/><use transform="matrix(0.01193576388888889,0,0,0.01193576388888889,17.772352430555557,0)" xlink:href="#s"/><use transform="matrix(0.01193576388888889,0,0,0.01193576388888889,30.806206597222225,0)" xlink:href="#t"/><use transform="matrix(0.01193576388888889,0,0,0.01193576388888889,44.61588541666667,0)" xlink:href="#u"/><use transform="matrix(0.01193576388888889,0,0,0.01193576388888889,52.195095486111114,0)" xlink:href="#v"/><use transform="matrix(0.01193576388888889,0,0,0.01193576388888889,67.42513020833334,0)" xlink:href="#w"/><use transform="matrix(0.01193576388888889,0,0,0.01193576388888889,81.3422309027778,0)" xlink:href="#x"/><use transform="matrix(0.01193576388888889,0,0,0.01193576388888889,94.42382812500003,0)" xlink:href="#y"/><use transform="matrix(0.01193576388888889,0,0,0.01193576388888889,109.95225694444447,0)" xlink:href="#z"/></g><g id="m"><use transform="matrix(0.01193576388888889,0,0,0.01193576388888889,0,0)" xlink:href="#A"/><use transform="matrix(0.01193576388888889,0,0,0.01193576388888889,13.296440972222223,0)" xlink:href="#x"/><use transform="matrix(0.01193576388888889,0,0,0.01193576388888889,26.378038194444446,0)" xlink:href="#B"/><use transform="matrix(0.01193576388888889,0,0,0.01193576388888889,41.38129340277778,0)" xlink:href="#C"/><use transform="matrix(0.01193576388888889,0,0,0.01193576388888889,56.897786458333336,0)" xlink:href="#x"/><use transform="matrix(0.01193576388888889,0,0,0.01193576388888889,69.97938368055556,0)" xlink:href="#y"/><use transform="matrix(0.01193576388888889,0,0,0.01193576388888889,85.74652777777779,0)" xlink:href="#D"/><use transform="matrix(0.01193576388888889,0,0,0.01193576388888889,97.77777777777779,0)" xlink:href="#x"/></g><path d="M1421-905c0 501-321 905-819 905H-43l16-86c129 6 206-41 228-147l213-1004c35-108-30-142-166-139l18-86h574c364-3 581 197 581 557zM557-104c197 0 354-76 469-227s172-350 172-597c0-288-130-432-389-432H647L379-104h178" id="U"/><path d="M352 20C165 20 88-147 88-354c0-188 59-362 176-523s261-241 434-241c93 0 173 25 240 74l90-52h66L954-440c-20 94-30 170-30 227 0 69 22 104 67 104 39 0 88-18 148-53l37 60C1078-21 982 20 887 20c-107 0-160-57-160-170 0-43 7-96 21-159h-13C637-90 509 20 352 20zm512-972c-31-49-83-74-155-74-117 0-214 74-293 222S297-503 297-346c0 158 43 237 129 237 68 0 136-53 214-151 147-186 163-434 224-692" id="V"/><path d="M745-965c-4-84 58-151 134-151 93 0 139 57 139 172 0 165-92 396-276 694S411 247 300 345 42 492-139 492c-72 0-136-12-193-37l31-103c48 15 101 23 160 23C54 375 246 251 434 2L164-903c-24-81-58-112-162-109l16-86h299c71 263 208 667 246 924h6c185-281 277-507 277-680 0-74-34-111-101-111" id="W"/><g id="o"><use transform="matrix(0.01193576388888889,0,0,0.01193576388888889,0,0)" xlink:href="#U"/><use transform="matrix(0.01193576388888889,0,0,0.01193576388888889,17.724609375,0)" xlink:href="#V"/><use transform="matrix(0.01193576388888889,0,0,0.01193576388888889,31.880425347222218,0)" xlink:href="#W"/></g><path d="M582-1446c0 85-45 143-123 143-77 0-115-37-115-112 0-81 45-145 123-144 77 0 115 38 115 113zM317 20c-103 0-172-89-170-194 5-193 106-546 132-752 8-65-61-91-152-86l18-86h367L373-440c-21 98-31 174-31 227 0 69 23 104 68 104 39 0 88-18 147-53l37 60C499-21 407 20 317 20" id="X"/><use transform="matrix(0.01193576388888889,0,0,0.01193576388888889,0,0)" xlink:href="#X" id="p"/></defs></g></svg>