<svg baseProfile="tiny" xmlns="http://www.w3.org/2000/svg" viewBox="0 0 541.34 120.87" overflow="scroll">
  <g fill="#00492C">
    <path d="M96.97 18.54c-4.87 2.18-10.96 3.24-15.6 4.31l.41 1.18c-8.15 1.89-16.12 2.77-23.16.94-12.14-2.48-24.56-7.48-36.52-7.31C8.8 20.55 1.11 28.86 0 42.12c1.35 13.74 8.5 22.46 20.82 22.34 18.35-.18 26.62-12.5 21.28-27.53-4.57 2.83-9.73 4.54-15.71 5.19 4.28 9.96 2.28 16.27-5.98 17.21-22.64-3.53-18.12-34.06 1.28-35.72 10.73-.18 20.46 3.71 29.78 9.49v51.58c.06 3.95-2.52 6.24-3.81 9.43h20.82c-1.94-3.01-2.23-6.02-3.4-9.02-.18-17.16-.47-34.66-.82-51.58 6.39-.53 12.84-1.89 18.99-3.3.71-.12 1.47.59 1.47 1.06 1.58 22.23.88 42.15-.88 62.43H99.5c-1.94-9.08-6.68-38.61 5.98-41.68 5.1.41 7.86 3.13 8.5 8.14.59 13.91-.59 27.82-.82 41.73 1.58 9.61 8.09 14.09 16.59 13.73 12.49-.47 16.42-8.9 16.59-18.5l-12.37 3.47c1.88 5.54 1.7 10.02-4.22 9.43-2.52-.23-4.34-1.41-4.69-3.89-1-16.26 1.7-31.07 1.29-48.16 1.17-6.78-4.75-11.91-12.37-12.85-7.33.12-11.96 2.47-16.3 7.07-.82.94-.88-.29-.7-.59V18.54zM245.49 25.63c-14.83 1.71-29.9-4.01-43.8-2.3-12.72 2.66-20.46 10.08-20.81 24.41 2.34 37.78 55.93 23.69 42.45-6.37-.35-.82-1.35-1.94-1.87-2.95-4.22 3.48-8.97 6.13-15.01 7.6 7.1 9.49 5.75 16.33-4.28 18.92-9.44-.06-14.37-5.83-14.89-17.21-.18-12.2 7.33-18.1 18.29-21.05 6.92-.23 20.87.88 23.1 6.72L249.66 88c.53 1.42-.53 3.66-1.18 4.89h14.49c3.87-20.92 23.28-81.17 46.91-82.52 6.56 2.3 6.15 7.31 6.33 11.26 1.23-1.3 3.05.18 3.46-1.48 1-3.83 9.32-7.48 14.07-8.9C330.75 3.59 323.48-.77 311.93.11c-30.55 4.07-43.15 53.87-51.95 78.28l-16.94-45.27c-.24-4.54.64-6.9 2.45-7.49z"/>
    <path d="M300.26 22.45c4.33 0 7.91 3.6 7.91 7.96 0 4.36-3.58 7.95-7.91 7.95-4.34 0-7.92-3.6-7.92-7.95 0-4.36 3.58-7.96 7.92-7.96zM307.23 44.44c-5.16 2.06-9.96 3.77-15.36 4.24 5.46 3.3 6.27 39.55.12 44.27h17.82c-3.63-16.38-.94-32.6-2.58-48.51zM312.33 22.04c5.98-1.35 11.2-2.89 15.19-4.71-.29 36.31-.29 76.69 3.69 75.62l-18.06-.06c1.24-1.77 1.82-3.89 2.17-6.89 1.17-19.22 1.17-38.49 0-57.59-.12-2.66-1.12-4.84-2.99-6.37zM333.03 22.04c5.98-1.35 11.19-2.89 15.18-4.71-.29 36.31-.29 76.69 3.7 75.62l-18.06-.06c1.23-1.77 1.82-3.89 2.17-6.89 1.17-19.22 1.17-38.49 0-57.59-.12-2.66-1.12-4.84-2.99-6.37zM525.92 61.65l.06-16.92c-10.44.53-30.67-4.6-35.24 13.91-2.23 9.02 6.15 15.62 16.82 18.92 22.46 5.13 20.76 33.6-2.52 35.25-10.85.77-16.53-6.07-15.6-15.5.53-5.36 3.63-8.19 8.15-8.49 5.75.89 7.92 4.95 7.45 11.62 4.22-3.84 8.68-5.49 12.96-5.6-.76-8.73-8.5-15.74-17.36-15.45-11.31.71-18.29 7.78-17.53 19.34.53 8.31 4.4 14.74 15.19 17.86 13.13 3.12 25.27-1.36 32.54-11.08 5.69-11.09 5.63-21.05-1.58-29.42-10.02-9.55-28.14-10.91-27.09-19.45.65-8.78 18.64-10.43 23.75 5.01zM443.72 40.19c-6.56.88-14.54 2.47-21.28 4.66 10.14 1.18 17.29 6.42 17 17.27-.41 6.84-4.46 10.84-9.79 13.56-5.98 1.94-9.91 3.23-16.12 6.01-1.47.3-1.82 2.95-.53 4.07 4.74 2.18 31.6-1 31.07 16.5-.17 12.56-9.5 17.63-23.92 18.57-13.07.59-24.33-5.3-24.68-13.26.71-5.31 3.93-9.08 9.26-10.55l.06-1.06c-5.22-1.36-7.63-3.89-7.98-7.31.71-5.42 8.04-7.14 14.02-9.78.12-.06.53-.29.53-.77-9.91-1.59-15.36-7.55-15.89-15.97.18-4.95 2.81-9.14 6.57-12.56 8.8-5.36 26.62-9.84 39.63-16.44.23 2.29.76 4.83 2.05 7.06zM408.83 62c0 7.37 3.87 13.38 8.62 13.38 4.75 0 8.62-6.01 8.62-13.38 0-7.37-3.87-13.38-8.62-13.38-4.75.01-8.62 6.01-8.62 13.38zm-4.1 45.1c2.17 7.07 7.45 9.55 14.43 9.73 9.26-.41 13.66-4.01 13.55-9.67.23-8.25-8.86-10.02-21.05-9.02-3.82.17-6.93 4.48-6.93 8.96zM158.53 89.06c5.8-.18 10.73-3.01 15.18-7.25v5.95c-5.33 5.37-11.78 8.19-19.46 8.26-15.36-.88-23.22-9.32-24.74-23.94.94-16.08 8.91-24.34 23.1-26.11 15.07.24 22.22 8.96 23.28 23.58h-33.3c-1.29 12.13 3.57 18.68 15.94 19.51zm-16-24.58h19.11c-.29-7.25-2.28-13.5-9.26-13.79-6.45-.24-9.68 6.24-9.85 13.79z"/>
    <path d="M469.81 87.64c5.8-.17 10.73-3 15.18-7.24v5.95c-5.33 5.36-11.78 8.19-19.47 8.25-15.36-.88-23.22-9.31-24.74-23.93.94-16.09 8.91-24.34 23.1-26.11 15.07.24 22.22 8.96 23.28 23.58h-33.3c-1.29 12.14 3.58 18.68 15.95 19.5zM453.8 63.07h19.11c-.3-7.25-2.28-13.5-9.26-13.79-6.45-.24-9.67 6.24-9.85 13.79zM377.29 44.26c8.62.24 14.13 4.01 15.42 10.55v25.64c.24 4.36-.59 9.02 3.29 12.67h-14.07c-1.06-1.65-1.59-3.13-1.59-4.66-4.16 4.24-8.91 6.31-14.31 5.95-9.61-.41-12.95-5.54-13.54-12.68-.82-12.19 11.96-14.73 20.93-18.16 3.69-1.47 5.8-4.06 6.15-8.01 0-4.72-3.69-6.9-11.02-6.72-5.34.77-9.56 4.48-13.3 8.84V45.03l22.04-.77zm-10.96 41.09c2.99 4.65 13.84 3.06 14.01-8.44V65.48c-10.08 3.72-19.76 10.73-14.01 19.87z"/>
  </g>
  <path fill="#00492C" d="M529.48 53.5c0-3.23 2.52-5.86 5.92-5.86s5.93 2.62 5.93 5.86-2.52 5.86-5.93 5.86c-3.39 0-5.92-2.63-5.92-5.86zm5.93 5.2c2.81 0 4.96-2.29 4.96-5.21 0-2.91-2.15-5.18-4.96-5.18s-4.96 2.27-4.96 5.18c0 2.92 2.15 5.21 4.96 5.21zm-1.9-6.81c0-1.05 0-1.22-.59-1.29l-.25-.03c-.09-.09-.09-.24.03-.31.91-.05 1.57-.07 2.56-.07 1.01 0 2.32.22 2.32 1.71 0 .86-.73 1.4-1.24 1.61-.02.09 0 .17.07.26.76 1.27 1.27 2.06 1.84 2.59.24.22.46.24.59.24.05.05.05.15 0 .2-.08.02-.29.05-.51.05-.9 0-1.3-.3-1.96-1.24-.24-.34-.61-1.05-.93-1.51-.09-.14-.29-.19-.53-.19-.39 0-.42.03-.42.22v.95c0 1.1.07 1.29.57 1.34l.34.03c.1.07.1.27-.02.32-.44-.02-.81-.03-1.34-.03-.51 0-.93.02-1.35.03-.1-.05-.12-.25-.03-.32l.25-.03c.59-.09.59-.27.59-1.34v-3.19zm.99 1.22c0 .34.07.36.66.36.95 0 1.35-.59 1.35-1.44 0-.68-.49-1.37-1.4-1.37-.61 0-.61.08-.61.39v2.06z"/>
</svg>
