<svg width="32" height="32" viewBox="0 0 128 128" fill="none" xmlns="http://www.w3.org/2000/svg">
<title>Go to Home</title>
<g id="letter-g">
<path id="g" d="M60.944 115.968C82.688 115.968 96.368 104.736 96.368 91.776C96.368 80.112 88.16 75.072 71.888 75.072H58.352C48.848 75.072 45.968 71.904 45.968 67.44C45.968 63.552 47.984 61.248 50.432 59.088C53.6 60.672 57.488 61.536 60.944 61.536C75.2 61.536 86.576 52.176 86.576 37.2C86.576 31.296 84.128 25.968 80.816 22.8H95.216V13.728H70.88C68.288 12.72 64.832 12 60.944 12C46.688 12 34.592 21.648 34.592 36.912C34.592 45.264 39.056 52.032 43.664 55.776V56.352C40.064 58.8 36.032 63.408 36.032 69.312C36.032 74.784 38.768 78.528 42.224 80.688V81.264C35.888 85.584 32 91.2 32 97.104C32 109.2 43.808 115.968 60.944 115.968ZM60.944 53.616C52.88 53.616 46.112 47.136 46.112 36.912C46.112 26.688 52.736 20.64 60.944 20.64C69.152 20.64 75.776 26.688 75.776 36.912C75.776 47.136 69.008 53.616 60.944 53.616ZM62.672 107.76C50 107.76 42.368 103.008 42.368 95.52C42.368 91.488 44.528 87.312 49.568 83.712C52.592 84.576 55.904 84.864 58.64 84.864H70.736C79.808 84.864 84.848 87.024 84.848 93.504C84.848 100.848 76.064 107.76 62.672 107.76Z" fill="currentColor"/>
</g>
</svg>
