<?xml version="1.0" standalone="no"?>
<!DOCTYPE svg PUBLIC "-//W3C//DTD SVG 20010904//EN"
 "http://www.w3.org/TR/2001/REC-SVG-20010904/DTD/svg10.dtd">
<svg version="1.0" xmlns="http://www.w3.org/2000/svg"
 width="384.000000pt" height="384.000000pt" viewBox="0 0 128 128"
 preserveAspectRatio="xMidYMid meet">
<rect width="128" height="128" rx="10" fill="#0E6876"/>
<g filter="url(#filter0_d_2_2)">
<path d="M59.944 117.968C81.688 117.968 95.368 106.736 95.368 93.776C95.368 82.112 87.16 77.072 70.888 77.072H57.352C47.848 77.072 44.968 73.904 44.968 69.44C44.968 65.552 46.984 63.248 49.432 61.088C52.6 62.672 56.488 63.536 59.944 63.536C74.2 63.536 85.576 54.176 85.576 39.2C85.576 33.296 83.128 27.968 79.816 24.8H94.216V15.728H69.88C67.288 14.72 63.832 14 59.944 14C45.688 14 33.592 23.648 33.592 38.912C33.592 47.264 38.056 54.032 42.664 57.776V58.352C39.064 60.8 35.032 65.408 35.032 71.312C35.032 76.784 37.768 80.528 41.224 82.688V83.264C34.888 87.584 31 93.2 31 99.104C31 111.2 42.808 117.968 59.944 117.968ZM59.944 55.616C51.88 55.616 45.112 49.136 45.112 38.912C45.112 28.688 51.736 22.64 59.944 22.64C68.152 22.64 74.776 28.688 74.776 38.912C74.776 49.136 68.008 55.616 59.944 55.616ZM61.672 109.76C49 109.76 41.368 105.008 41.368 97.52C41.368 93.488 43.528 89.312 48.568 85.712C51.592 86.576 54.904 86.864 57.64 86.864H69.736C78.808 86.864 83.848 89.024 83.848 95.504C83.848 102.848 75.064 109.76 61.672 109.76Z" fill="#97C4CA"/>
</g>
<path d="M57.944 113.968C79.688 113.968 93.368 102.736 93.368 89.776C93.368 78.112 85.16 73.072 68.888 73.072H55.352C45.848 73.072 42.968 69.904 42.968 65.44C42.968 61.552 44.984 59.248 47.432 57.088C50.6 58.672 54.488 59.536 57.944 59.536C72.2 59.536 83.576 50.176 83.576 35.2C83.576 29.296 81.128 23.968 77.816 20.8H92.216V11.728H67.88C65.288 10.72 61.832 10 57.944 10C43.688 10 31.592 19.648 31.592 34.912C31.592 43.264 36.056 50.032 40.664 53.776V54.352C37.064 56.8 33.032 61.408 33.032 67.312C33.032 72.784 35.768 76.528 39.224 78.688V79.264C32.888 83.584 29 89.2 29 95.104C29 107.2 40.808 113.968 57.944 113.968ZM57.944 51.616C49.88 51.616 43.112 45.136 43.112 34.912C43.112 24.688 49.736 18.64 57.944 18.64C66.152 18.64 72.776 24.688 72.776 34.912C72.776 45.136 66.008 51.616 57.944 51.616ZM59.672 105.76C47 105.76 39.368 101.008 39.368 93.52C39.368 89.488 41.528 85.312 46.568 81.712C49.592 82.576 52.904 82.864 55.64 82.864H67.736C76.808 82.864 81.848 85.024 81.848 91.504C81.848 98.848 73.064 105.76 59.672 105.76Z" fill="#F7FAFB"/>
<defs>
<filter id="filter0_d_2_2" x="27" y="14" width="72.368" height="111.968" filterUnits="userSpaceOnUse" color-interpolation-filters="sRGB">
<feFlood flood-opacity="0" result="BackgroundImageFix"/>
<feColorMatrix in="SourceAlpha" type="matrix" values="0 0 0 0 0 0 0 0 0 0 0 0 0 0 0 0 0 0 127 0" result="hardAlpha"/>
<feOffset dy="4"/>
<feGaussianBlur stdDeviation="2"/>
<feComposite in2="hardAlpha" operator="out"/>
<feColorMatrix type="matrix" values="0 0 0 0 0 0 0 0 0 0 0 0 0 0 0 0 0 0 0.25 0"/>
<feBlend mode="normal" in2="BackgroundImageFix" result="effect1_dropShadow_2_2"/>
<feBlend mode="normal" in="SourceGraphic" in2="effect1_dropShadow_2_2" result="shape"/>
</filter>
</defs>
</svg>
